<?xml version="1.0" standalone="no"?>
<!DOCTYPE svg PUBLIC "-//W3C//DTD SVG 1.1//EN" "http://www.w3.org/Graphics/SVG/1.1/DTD/svg11.dtd" >
<svg xmlns="http://www.w3.org/2000/svg">
<metadata>
This is a custom SVG webfont generated by Font Squirrel.
Copyright   : Generated by Fontographer 35
</metadata>
<defs>
<font id="FontanaTituloRegular" horiz-adv-x="929" >
<font-face units-per-em="2048" ascent="1638" descent="-410" />
<missing-glyph horiz-adv-x="376" />
<glyph unicode=" "  horiz-adv-x="376" />
<glyph unicode="&#x09;" horiz-adv-x="376" />
<glyph unicode="&#xa0;" horiz-adv-x="376" />
<glyph unicode="!" horiz-adv-x="624" d="M68 0l28 211h277l-29 -211h-276zM111 346l116 957h301l-166 -957h-251z" />
<glyph unicode="&#x22;" horiz-adv-x="921" d="M109 856v442h253v-442h-253zM557 856v442h254v-442h-254z" />
<glyph unicode="#" horiz-adv-x="1073" d="M39 334v184h186l31 250h-172v186h195l30 342h232l-47 -342h174l30 342h228l-45 -342h151v-186h-174l-31 -250h166v-184h-190l-37 -334h-227l53 334h-176l-35 -334h-231l53 334h-164zM440 518h174l31 250h-176z" />
<glyph unicode="$" horiz-adv-x="700" d="M51 223q102 -61 189 -61q150 0 151 108q0 47 -34.5 80t-85 57.5t-100.5 54.5t-85 90t-35 148q0 70 22.5 122t63.5 81t72 42t72 24l38 323h230l-62 -321q27 -2 66 -11.5t63 -17.5l25 -8l-92 -178q-45 45 -121 45q-119 0 -119 -90q0 -47 53.5 -88t117 -72t116.5 -102.5 t53 -174.5v2q0 -123 -64.5 -191.5t-152.5 -86.5l-37 -336l-223 -2l53 320q-82 8 -172 40z" />
<glyph unicode="%" horiz-adv-x="1476" d="M31 1036q0 168 76.5 259t205.5 91q131 0 210 -90t79 -260v-2q0 -168 -80 -260t-209 -92t-205.5 91t-76.5 263zM168 1034q0 -78 38 -122t107 -44q74 0 113 44t39 122q0 76 -39 120t-111 42q-72 0 -109.5 -43t-37.5 -119zM360 0l500 1298h225l-497 -1298h-228zM874 328 q0 168 77 259t206 91q131 0 210 -90t79 -260q0 -168 -80 -260.5t-209 -92.5t-206 91.5t-77 261.5zM1010 328q0 -78 37.5 -122t107.5 -44q74 0 113 44t39 122q0 76 -39 120t-111 44t-109.5 -44t-37.5 -120z" />
<glyph unicode="&#x26;" horiz-adv-x="1091" d="M72 362q0 127 68.5 210t164.5 114q-82 39 -131 113.5t-49 165.5q0 61 19.5 119.5t61.5 113.5t124 89t190 34l146 -16v-195q-20 12 -96 12t-112 -50t-36 -109q0 -90 50 -135.5t126 -45.5h70v152l282 74v-226h142v-198h-142v-607h-110l-66 99q-12 -10 -35.5 -26.5 t-100.5 -44.5t-157 -28q-197 0 -303 104.5t-106 280.5zM369 362q0 -82 52 -134t136 -52q61 0 111 39v369h-80q-100 0 -159.5 -65t-59.5 -157z" />
<glyph unicode="'" horiz-adv-x="471" d="M109 856v442h253v-442h-253z" />
<glyph unicode="(" horiz-adv-x="458" d="M94 74v803q0 143 18.5 211.5t96.5 168.5l61 82l170 -86q-37 -59 -54 -112.5t-19 -90t-2 -128.5v-902q0 -90 2 -126.5t19 -90t54 -110.5l-170 -86l-59 80q-80 106 -98.5 174t-18.5 213z" />
<glyph unicode=")" horiz-adv-x="458" d="M18 -307q37 57 54.5 110.5t19.5 90t2 126.5v904q0 90 -2 126.5t-19.5 90t-54.5 112.5l168 86l64 -82q78 -102 96.5 -170.5t18.5 -209.5v-803q0 -145 -18.5 -214t-98.5 -173l-62 -80z" />
<glyph unicode="*" horiz-adv-x="782" d="M51 1087l250 21l-188 162l184 143l96 -237l94 233l189 -139l-187 -162l242 -23l-74 -217l-202 129l51 -239h-232l58 243l-213 -133z" />
<glyph unicode="+" horiz-adv-x="1169" d="M102 379v199h369v376h201v-376h368v-199h-368v-383h-201v383h-369z" />
<glyph unicode="," horiz-adv-x="456" d="M25 -260q53 82 64 142.5t11 201.5v154h252v-152q0 -100 -4 -141t-27.5 -95.5t-78.5 -115.5l-62 -72z" />
<glyph unicode="-" horiz-adv-x="817" d="M102 430v199h615v-199h-615z" />
<glyph unicode="." horiz-adv-x="473" d="M102 0v238h271v-238h-271z" />
<glyph unicode="/" horiz-adv-x="612" d="M-94 -477l430 1773h262l-426 -1773h-266z" />
<glyph unicode="0" d="M45 477q0 238 118 369t304 131t302 -129t116 -371v2q0 -238 -121 -370t-307 -134q-184 0 -298 130t-114 372zM240 479.5q0 -108.5 60 -172t161 -63.5q104 0 166.5 64.5t62.5 170.5q0 109 -61.5 172.5t-165.5 63.5q-102 0 -162.5 -63.5t-60.5 -172z" />
<glyph unicode="1" d="M92 852l580 176v-844h225v-184h-799v184h301v570l-198 -107z" />
<glyph unicode="2" d="M33 0q254 229 366.5 369.5t112.5 257.5q0 66 -45 111.5t-109 45.5q-49 0 -103 -11t-83 -23l-29 -13l-86 170q139 70 340 70q197 0 300.5 -89t105.5 -257q0 -72 -26.5 -139.5t-80 -132t-82 -94t-86.5 -81.5h320v-184h-815z" />
<glyph unicode="3" d="M70 915q147 61 342 62q176 0 273 -79t97 -222q0 -86 -48 -165t-132 -118q94 -16 159.5 -97t65.5 -214h-2q0 -152 -104.5 -266.5t-269 -170t-359.5 -55.5l-2 189q201 0 324 80t123 217q0 106 -69 147t-218 41v191q246 0 242 184q-2 160 -162 160q-47 0 -92 -10.5 t-66 -20.5l-20 -10z" />
<glyph unicode="4" d="M63 0v193l273 477q70 121 70 221v88h210v-113q0 -86 -2 -118.5t-18 -94t-51 -123.5l-199 -344h236v164l270 146v-902h-270v406h-519z" />
<glyph unicode="5" d="M96 -221q213 0 323.5 99t110.5 243q0 51 -16 92t-64.5 80t-133.5 46t-220 -11l92 626l316 -2q86 0 137 29l47 25l84 -158l-70 -55q-74 -57 -213 -58h-59l-33 -211q121 8 209 -23.5t135 -92t68.5 -129t21.5 -150.5v-2q0 -227 -214 -380t-519 -153z" />
<glyph unicode="6" d="M61 582q8 326 196.5 528.5t483.5 202.5l97 -183q-88 2 -158 -10t-117 -40.5t-79.5 -59.5t-54 -79t-32 -83t-22.5 -86q72 27 160 27q147 0 250.5 -97.5t103.5 -277.5q0 -229 -119 -340t-293 -113q-207 0 -314.5 167.5t-101.5 443.5zM354 584q-31 -422 125 -422 q74 0 101.5 59.5t27.5 181.5h2q0 100 -41 159t-106 59q-20 0 -47 -9.5t-44.5 -17.5t-17.5 -10z" />
<glyph unicode="7" d="M39 465v489h842l-363 -964q-6 -18 -22.5 -60.5t-20.5 -53.5t-15 -41t-12.5 -42t-7.5 -37.5t-7 -47t-2 -50.5t-1 -66l-225 -2v84v71q0 15 1 50t3 47.5t5 38t10 46t15.5 46t20.5 60.5l256 735h-215v-154z" />
<glyph unicode="8" d="M47 358q0 96 59.5 186.5t149.5 131.5q-170 111 -170 303q0 133 102.5 237.5t276.5 104.5q180 0 275.5 -95.5t95.5 -236.5q0 -80 -44 -146.5t-139 -137.5q236 -125 236 -351q0 -164 -126 -270.5t-302 -106.5q-193 0 -303.5 104.5t-110.5 276.5zM279 358q0 -102 41.5 -154 t113.5 -52q74 0 124 48t50 146l2 -2q0 139 -184 223q-74 -31 -111.5 -89.5t-35.5 -119.5zM342 995q0 -119 143 -188q53 18 97.5 72.5t44.5 119.5q0 61 -35 103.5t-105 42.5q-66 0 -105.5 -45.5t-39.5 -104.5z" />
<glyph unicode="9" d="M41 528q0 229 120 340t294 111q205 0 311 -166t104 -442q-2 -326 -193.5 -531t-492.5 -205l-96 185q80 0 144.5 11t108.5 28.5t79 48.5t55.5 57.5t37.5 69.5t24.5 70.5t17.5 72.5q-72 -27 -160 -26q-147 0 -250.5 97t-103.5 279zM322 549q0 -100 40.5 -158.5t104.5 -58.5 q20 0 47 8t43 16l18 11v2q31 422 -124 422q-74 0 -101.5 -59.5t-27.5 -182.5z" />
<glyph unicode=":" horiz-adv-x="473" d="M102 0v238h271v-238h-271zM102 717v237h271v-237h-271z" />
<glyph unicode=";" horiz-adv-x="456" d="M47 -260q53 82 64.5 142.5t11.5 201.5v154h254v-152q0 -129 -19.5 -191.5t-95.5 -158.5l-59 -74zM106 717v237h273v-237h-273z" />
<glyph unicode="&#x3c;" horiz-adv-x="1064" d="M104 393v168l859 377v-225l-557 -236l557 -235v-226z" />
<glyph unicode="=" horiz-adv-x="1021" d="M66 227v201h884v-201h-884zM66 545v198h884v-198h-884z" />
<glyph unicode="&#x3e;" horiz-adv-x="1064" d="M102 16v226l557 235l-557 236v225l859 -377v-168z" />
<glyph unicode="?" horiz-adv-x="831" d="M72 1270q92 49 258 49q184 0 291.5 -109.5t107.5 -261.5h2q0 -166 -82 -263t-207 -132l-24 -207h-275l35 320q106 2 181 64.5t75 180.5q0 100 -49 151.5t-133 51.5l-96 -18zM104 -2l25 211h274l-24 -211h-275z" />
<glyph unicode="A" horiz-adv-x="1067" d="M14 0l387 1296h277l375 -1296h-301l-82 319h-310l-86 -319h-260zM412 518h206l-100 438z" />
<glyph unicode="B" horiz-adv-x="1044" d="M111 0v1296l411 2q412 0 412 -323q0 -102 -55.5 -176t-143.5 -99q96 -20 167 -100t71 -219h2q0 -381 -543 -381h-321zM406 199h92q74 0 120 49t46 141v2q0 100 -50.5 139t-119.5 39h-88v-370zM406 768h90q72 0 105.5 48t33.5 114q0 168 -135 168h-94v-330z" />
<glyph unicode="C" horiz-adv-x="931" d="M63 651q0 322 147.5 496t426.5 174q82 0 157.5 -13.5t110.5 -27.5l35 -14l-109 -199q-66 55 -163 55q-147 0 -220 -128t-73 -324q0 -240 80 -367t204 -127q172 4 254 82v-225q-78 -55 -264 -58q-289 0 -438.5 180.5t-147.5 495.5z" />
<glyph unicode="D" horiz-adv-x="1138" d="M111 0v1296l350 2q176 0 299 -46t190.5 -133t96 -195.5t28.5 -249.5v-2q0 -348 -158.5 -510t-486.5 -162h-319zM399 197h52q176 0 242.5 112.5t66.5 366.5h2q0 219 -68.5 319.5t-218.5 100.5h-76v-899z" />
<glyph unicode="E" horiz-adv-x="815" d="M111 0v1296h684v-198h-394v-330h359v-199h-359v-370h394v-199h-684z" />
<glyph unicode="F" horiz-adv-x="798" d="M111 0v1296h669v-198h-379v-330h347v-199h-347v-569h-290z" />
<glyph unicode="G" horiz-adv-x="1155" d="M70 653q0 313 159 492q158 176 454 176h7q104 0 188.5 -17.5t116.5 -33.5l31 -19l-94 -188q-6 6 -20.5 16.5t-76 26.5t-143.5 16q-156 0 -231.5 -135t-77.5 -334q0 -233 59.5 -355t200.5 -122q53 0 121 47v266h-193v199h480v-708h-123l-78 98q-10 -10 -29.5 -26.5 t-85 -45.5t-139.5 -29q-244 0 -385 182.5t-141 493.5z" />
<glyph unicode="H" horiz-adv-x="1126" d="M111 0v1296h288v-528h330v528h287v-1296h-287v569h-330v-569h-288z" />
<glyph unicode="I" horiz-adv-x="514" d="M115 0v1296h288v-1296h-288z" />
<glyph unicode="J" horiz-adv-x="569" d="M-41 -297l125 170q80 109 80 258v967h-150v198h441v-1163q0 -207 -144 -364l-151 -170z" />
<glyph unicode="K" horiz-adv-x="1046" d="M111 0v1296h290v-448l365 475l215 -113l-303 -364l350 -846h-311l-223 621l-93 -109v-512h-290z" />
<glyph unicode="L" horiz-adv-x="751" d="M111 0v1296h290v-1097h336v-199h-626z" />
<glyph unicode="M" horiz-adv-x="1325" d="M111 0v1296h301l256 -563l245 563h299v-1296h-290v817l-222 -502h-133l-221 494v-809h-235z" />
<glyph unicode="N" horiz-adv-x="1124" d="M111 0v1296h297l370 -811v811h234v-1296h-273l-393 840v-840h-235z" />
<glyph unicode="O" horiz-adv-x="1212" d="M72 649q0 674 538 674q532 0 533 -674v2q0 -111 -13.5 -202t-49.5 -181t-95 -151.5t-157.5 -99t-229.5 -37.5q-530 -1 -526 669zM381 653q0 -80 2 -132t14.5 -122.5t35 -113.5t65.5 -75t104 -32q63 0 107.5 31t68 74t35.5 113.5t15 123.5t3 131t-2 131.5t-15 125 t-35.5 114.5t-66.5 73.5t-106 30.5q-51 0 -91 -19.5t-63.5 -59t-38 -78.5t-21.5 -102.5t-9 -105.5t-2 -108z" />
<glyph unicode="P" horiz-adv-x="993" d="M111 0v1296h368q442 0 443 -389h2q0 -186 -113 -294.5t-334 -108.5h-76v-504h-290zM403 702l68 -2q80 0 119 49.5t39 157.5q0 190 -162 191h-64v-396z" />
<glyph unicode="Q" horiz-adv-x="1177" d="M61 829q0 82 29 164t87.5 158t161.5 123t239 47q152 0 261 -49t166.5 -134t82 -180.5t24.5 -207.5q0 -229 -135 -387t-322 -222q197 0 420 -65l-108 -211q-6 6 -20.5 15t-71 31.5t-128 41t-200.5 33t-281 14.5l-2 219q289 0 418 143.5t129 387.5q0 199 -55.5 285.5 t-180.5 86.5q-117 0 -172 -85q-53 -82 -53 -203q0 -130 61.5 -205.5t176.5 -75.5l-86 -184q-236 0 -338.5 132.5t-102.5 327.5z" />
<glyph unicode="R" horiz-adv-x="1017" d="M111 0v1296h419q203 0 298.5 -93t97.5 -238q0 -131 -80 -208t-193 -95q143 -31 205 -193l143 -381l-264 -135l-162 463q-31 92 -58.5 121.5t-86.5 29.5h-29v-567h-290zM401 762l82 2q63 0 104.5 46t41.5 126h-2q0 78 -42 120t-112 42h-72v-336z" />
<glyph unicode="S" horiz-adv-x="909" d="M63 948q0 190 120 282q117 89 298 89h8q76 0 152 -16.5t113 -32.5l39 -15l-101 -192q-61 59 -172 59q-55 0 -100 -35.5t-45 -111.5q0 -51 34.5 -96t87 -76t114 -72t113.5 -83t87 -111.5t35 -153.5v2q0 -111 -39 -191.5t-106.5 -127t-148.5 -68t-175 -21.5q-156 0 -307 64 v233q117 -98 276 -98q90 0 139 40q47 38 48 117q0 68 -35 116.5t-87.5 76t-113.5 65.5t-113.5 78t-86.5 111.5t-34 167.5z" />
<glyph unicode="T" horiz-adv-x="854" d="M14 1098v198h826v-198h-271v-1098h-286v1098h-269z" />
<glyph unicode="U" horiz-adv-x="1114" d="M102 461v835h291v-835q0 -63 2 -100t11.5 -78t26 -60.5t48 -33t76.5 -13.5q47 0 79 14.5t48 32t24.5 61.5t9.5 76.5t1 102.5v833h291v-835h2q0 -254 -109.5 -369t-355.5 -115q-233 0 -339 116t-106 368z" />
<glyph unicode="V" horiz-adv-x="1001" d="M14 1296h312l184 -991l207 991h270l-356 -1296h-279z" />
<glyph unicode="W" horiz-adv-x="1337" d="M14 1296h312l116 -878l156 536h182l150 -536l131 878h264l-281 -1296h-233l-154 547l-145 -547l-227 -2z" />
<glyph unicode="X" horiz-adv-x="1060" d="M16 0l361 674l-328 622h334l162 -387l178 387h283l-316 -579l357 -717h-340l-195 465l-215 -465h-281z" />
<glyph unicode="Y" horiz-adv-x="1007" d="M14 1296h336l176 -442l191 442h278l-352 -639v-657h-291v657z" />
<glyph unicode="Z" horiz-adv-x="897" d="M20 0v166l447 932h-385v198h799l-533 -1097h531v-199h-859z" />
<glyph unicode="[" horiz-adv-x="569" d="M102 -344v1640h445v-178h-174v-1282h174v-180h-445z" />
<glyph unicode="\" horiz-adv-x="468" d="M-61 1296h264l319 -1296h-264z" />
<glyph unicode="]" horiz-adv-x="569" d="M20 -164h175v1282h-175v178h447v-1640h-447v180z" />
<glyph unicode="_" horiz-adv-x="1220" d="M0 -98h1219v-195h-1219v195z" />
<glyph unicode="`" horiz-adv-x="507" d="M25 1364v192l493 -143l-37 -113z" />
<glyph unicode="a" horiz-adv-x="843" d="M33 250q0 131 69.5 208t225.5 126l180 57q0 90 -34 121q-32 29 -116 29h-12q-66 0 -128 -17.5t-91 -36.5l-29 -16v201q154 55 308 55q203 0 285.5 -73t82.5 -265v-287v-35v-45q0 -12 2 -43.5t8.5 -51t14.5 -46.5t23.5 -47.5t33.5 -38.5l-154 -70l-159 136 q-10 -14 -28.5 -37t-82 -60t-135.5 -37q-129 0 -196.5 75t-67.5 198zM307 285q0 -61 38 -89q25 -18 53 -19q15 0 30 5q45 14 66 58q4 8 6 16t4 15.5t3 18.5t2 20t1 29v35v47v58l-80 -24q-123 -39 -123 -170z" />
<glyph unicode="b" horiz-adv-x="905" d="M84 0v1296h270v-358q45 39 144 39q70 0 129 -21.5t112.5 -71.5t84 -148.5t30.5 -235.5q0 -522 -338 -525q-137 0 -194 113l-7 16l-129 -104h-102zM354 381q0 -199 92 -199q61 0 89 62.5t28 255.5q0 174 -37 233q-36 57 -96 58h-4l-72 -23v-387z" />
<glyph unicode="c" horiz-adv-x="751" d="M51 481q0 229 121 362.5t336 133.5q164 0 258 -35l-96 -180q-35 31 -133 31q-195 0 -197 -312q0 -145 60.5 -226t148.5 -81q49 0 96 18.5t68 36.5l22 19l2 -219q-102 -51 -239 -52q-211 0 -329 136.5t-118 367.5z" />
<glyph unicode="d" horiz-adv-x="907" d="M51 453q0 276 102.5 400t266.5 124l131 -25v344h270v-923v-19q0 -70 2 -110.5t21.5 -100t58.5 -94.5l-153 -76l-162 136q-8 -14 -23.5 -36t-69 -59t-112.5 -37q-68 0 -120 17.5t-103 64.5t-80 148t-29 246zM342 453q0 -158 22.5 -216.5t84.5 -58.5q53 0 77.5 60.5 t24.5 207.5l-2 326q-20 20 -86 21q-59 0 -90 -76t-31 -264z" />
<glyph unicode="e" horiz-adv-x="892" d="M51 479q0 246 105.5 372t300.5 126q231 0 317 -134t86 -423h-522q0 -248 207 -248q156 2 260 80l2 -203q-10 -8 -31.5 -20.5t-99.5 -33t-168 -20.5q-457 0 -457 504zM336 580h239v2q0 53 -2 80.5t-12 64.5t-35.5 53.5t-68.5 16.5q-121 0 -121 -217z" />
<glyph unicode="f" horiz-adv-x="540" d="M20 768v186h115q0 272 236 346q68 21 126 21h11l96 -191q-8 2 -21.5 5.5t-47 0.5t-60 -17.5t-48 -56.5t-21.5 -108h133v-186h-133v-711q0 -156 -17.5 -216t-99.5 -169l-62 -80l-168 86q37 55 54.5 109.5t19.5 92.5t2 132v756h-115z" />
<glyph unicode="g" horiz-adv-x="837" d="M33 592q0 297 270 354q47 11 109 12q5 0 10.5 -0.5t10.5 -0.5q63 0 115 13q56 13 130 64l153 -86l-129 -131q100 -96 101 -244q0 -160 -102.5 -241.5t-219.5 -89.5l-35 -66q30 2 57 2q332 0 333 -254l-2 -2q0 -80 -45.5 -139t-117 -90t-142 -45.5t-140.5 -14.5 q-82 0 -169 17.5t-134 34.5l-45 16v207q23 -10 58.5 -23.5t123.5 -36t150 -22.5q184 0 186 92q0 61 -57.5 79.5t-179.5 18.5q-82 0 -103 49q-8 18 -7 37q0 34 21 74l43 90q-96 27 -169.5 113t-73.5 213zM291 588q0 -78 34.5 -126t100.5 -48q68 0 99.5 49t31.5 125 q0 190 -129 190q-137 0 -137 -190z" />
<glyph unicode="h" horiz-adv-x="870" d="M84 0v1298h270v-417q8 10 24.5 26.5t66 44t98.5 27.5q135 0 196.5 -77t61.5 -265v-637h-271v643q0 74 -15 101.5t-64 27.5q-23 0 -47.5 -10t-36.5 -21l-13 -10v-731h-270z" />
<glyph unicode="i" horiz-adv-x="473" d="M102 0v954h271v-954h-271zM102 1102v196h271v-196h-271z" />
<glyph unicode="j" horiz-adv-x="475" d="M25 -334q53 80 65 142.5t12 189.5v956h271v-899q0 -160 -18.5 -223t-100.5 -174l-61 -80zM102 1100v196h271v-196h-271z" />
<glyph unicode="k" horiz-adv-x="868" d="M84 0v1298h270v-616l271 340l211 -117l-211 -223l227 -682h-295l-111 494l-92 -101v-393h-270z" />
<glyph unicode="l" horiz-adv-x="475" d="M102 412v884h271v-936q0 -92 2 -128.5t19.5 -91t54.5 -111.5l-170 -86l-58 80q-80 104 -99.5 174t-19.5 215z" />
<glyph unicode="m" horiz-adv-x="1316" d="M4 901l154 74l133 -111q14 12 36.5 30.5t89 51.5t124.5 33q66 0 111.5 -19.5t61 -39t34.5 -52.5q12 12 32.5 31t84 48.5t124.5 29.5q137 0 198.5 -73t61.5 -261v-643h-272v643q0 72 -15.5 100.5t-64.5 28.5q-51 0 -96 -51v-721h-271v643q0 74 -15 101.5t-64 27.5 q-23 0 -47.5 -10t-36.5 -21l-13 -10v-731h-270v600q0 68 -2 100.5t-20.5 95t-57.5 105.5z" />
<glyph unicode="n" horiz-adv-x="868" d="M4 901l152 74l135 -115q12 12 35.5 31.5t90 52.5t128.5 33q139 0 196.5 -79t57.5 -267v-631h-271v643q0 74 -15 101.5t-64 27.5q-23 0 -47.5 -10t-36.5 -21l-13 -10v-731h-270v598q0 160 -31 229q-18 43 -47 74z" />
<glyph unicode="o" horiz-adv-x="923" d="M49 477q0 240 94.5 370t321.5 130q219 0 314 -130t95 -370v2q0 -244 -94 -373t-317 -129q-225 0 -318.5 128t-95.5 372zM342 479q0 -86 3 -133t14.5 -95t37 -67.5t66.5 -19.5q35 0 57.5 15.5t35.5 38t19.5 68.5t7.5 85t1 108v2q0 72 -1 110t-7.5 84t-19.5 67.5t-35.5 37 t-57.5 15.5q-78 0 -99.5 -72t-21.5 -244z" />
<glyph unicode="p" horiz-adv-x="903" d="M4 911l152 74l88 -76q47 23 61 29t49 18.5t67 16.5t73 4q170 0 264 -105.5t94 -377.5v2q0 -516 -338 -521q-98 0 -162 66v-383h-270v981q0 182 -78 272zM352 385q0 -115 24.5 -160t74.5 -47q63 0 86.5 65.5t23.5 260.5h2q0 168 -36 229q-35 59 -99 60h-4l-72 -23v-385z " />
<glyph unicode="q" horiz-adv-x="905" d="M51 426q0 551 375 551q41 0 76 -7t52 -15.5t45 -24t38 -19.5l80 66h104v-1319h-270l-2 403q-29 -31 -43 -44t-47 -26.5t-76 -13.5q-332 0 -332 449zM340 424q0 -244 102 -248q61 0 85 49t24 166l-2 379q-23 23 -74 23q-72 0 -102.5 -79t-32.5 -290z" />
<glyph unicode="r" horiz-adv-x="573" d="M4 901l152 76l153 -133q37 57 99.5 90t105.5 37l43 6v-229q-32 7 -62 6q-78 0 -143 -45v-709h-270v598q0 68 -2 101.5t-20.5 97t-55.5 104.5z" />
<glyph unicode="s" horiz-adv-x="667" d="M33 707q0 135 96 202.5t231 67.5q74 0 140.5 -11.5t95.5 -23.5l29 -12l-95 -174q-41 45 -124 47q-113 0 -113 -96q0 -37 34.5 -68t85 -59.5t101.5 -64.5t86 -99.5t35 -147.5v2q0 -133 -96.5 -213t-262.5 -80q-113 0 -241 43v203q92 -61 190 -61q147 0 148 106 q0 41 -25.5 71t-62.5 48.5t-82 45t-82 56t-62.5 86t-25.5 132.5z" />
<glyph unicode="t" horiz-adv-x="509" d="M-10 768v186h112v183l273 69v-252h135v-186h-135v-408q0 -92 2 -129.5t19.5 -92t54.5 -109.5l-170 -86l-60 82q-82 109 -100.5 170t-18.5 217v356h-112z" />
<glyph unicode="u" horiz-adv-x="870" d="M68 328v626h272l-2 -602q0 -94 15.5 -132t62.5 -38q63 0 98 41v731h272v-954h-104l-127 113q-4 -6 -11 -15.5t-31 -32t-49.5 -41t-64.5 -33t-75 -14.5q-145 0 -200.5 82.5t-55.5 268.5z" />
<glyph unicode="v" horiz-adv-x="813" d="M16 954h308l96 -610l115 610h262l-273 -954h-237z" />
<glyph unicode="w" horiz-adv-x="1181" d="M16 954h303l62 -571l129 571h205l125 -571l63 571h262l-207 -954h-245l-138 506l-100 -506h-242z" />
<glyph unicode="x" horiz-adv-x="860" d="M16 0l250 506l-209 448h328l59 -252l80 252h279l-217 -417l258 -537h-326l-102 342l-119 -342h-281z" />
<glyph unicode="y" horiz-adv-x="813" d="M16 954h324l82 -495l110 495h265l-486 -1366l-229 84l205 494z" />
<glyph unicode="z" horiz-adv-x="774" d="M16 0v152l338 616h-303v186h707l-436 -770h434v-184h-740z" />
<glyph unicode="{" horiz-adv-x="499" d="M10 469l72 72q45 47 45 157v172q0 143 18.5 212t96.5 169l63 82l168 -86q-37 -59 -54.5 -112.5t-19.5 -90t-2 -126.5l2 -166q0 -102 -13 -150.5t-50 -85.5l-47 -45l43 -45q39 -39 52 -84t13 -143v-191q0 -90 2 -127t19.5 -90t54.5 -110l-168 -87l-61 80 q-80 106 -98.5 174t-18.5 213v189q0 104 -45 147z" />
<glyph unicode="|" horiz-adv-x="405" d="M68 0v1296h278v-1296h-278z" />
<glyph unicode="}" horiz-adv-x="499" d="M25 1249l170 84l63 -80q78 -102 96.5 -170.5t18.5 -212.5v-170q0 -111 45 -157l71 -74l-71 -72q-45 -43 -45 -147v-187q0 -145 -18.5 -213.5t-98.5 -175.5l-61 -80l-168 87q37 57 54 110t19 90t2 129l-2 189q0 98 13.5 143t52.5 84l45 45l-45 45q-37 37 -50.5 85 t-13.5 151l-2 168q0 90 -2 126.5t-19 90t-54 112.5z" />
<glyph unicode="~" horiz-adv-x="716" d="M96 385v135v2q86 63 152 70q43 6 115.5 -17.5t105.5 -23.5q41 0 79 7t56 15l19 9v-138q-86 -59 -154 -71q-49 -8 -121 17.5t-98 25.5q-41 0 -80 -7.5t-55 -15.5z" />
<glyph unicode="&#xa1;" horiz-adv-x="632" d="M96 -348l166 956h250l-117 -956h-299zM252 743l29 211h274l-27 -211h-276z" />
<glyph unicode="&#xa2;" horiz-adv-x="751" d="M51 481q0 229 121 362.5t336 133.5q164 0 258 -35l-96 -180q-35 31 -133 31q-195 0 -197 -312q0 -145 60.5 -226t148.5 -81q49 0 96 18.5t68 36.5l22 19v-221q-76 -39 -184 -47l-37 -318l-223 -2l55 334q-143 45 -219 172t-76 315zM399 969l39 323h230l-62 -321z" />
<glyph unicode="&#xa3;" horiz-adv-x="833" d="M57 178q10 6 24.5 22.5t39 82t24.5 153.5l2 502q0 86 20.5 151.5t52.5 107.5t82 69.5t96 40t106.5 15.5t104.5 1t100 -8l53 -225q-14 4 -35.5 9t-78 10t-99.5 -5t-79 -49t-36 -109v-178h254v-201h-254l2 -133q0 -152 -80 -235h418v-199h-715z" />
<glyph unicode="&#xa5;" horiz-adv-x="1007" d="M14 1296h336l174 -442l193 442h278l-352 -637h297v-198h-297v-117h297v-201h-297v-143h-291v143h-291v201h291v117h-291v198h291z" />
<glyph unicode="&#xa7;" horiz-adv-x="1048" d="M45 455q0 236 168 338h2q-29 63 -29 157q0 188 123 279.5t309 91.5q170 0 285 -55l-92 -197q-6 6 -19.5 14.5t-59.5 22.5t-97 14q-49 0 -94 -33.5t-45 -107.5q0 -66 51 -116t122.5 -90t144.5 -85t124 -123t51 -182q0 -227 -170 -334q29 -61 29 -153q0 -190 -121 -281.5 t-309 -93.5q-170 0 -287 53l92 199q57 -53 170 -54q57 0 101.5 37t44.5 113q0 61 -51.5 110.5t-124 89.5t-144.5 86t-123 123t-51 177zM328 510q0 -45 18.5 -81t56 -64.5t72.5 -48t90.5 -46t85.5 -45.5h2q49 68 49 115q0 45 -18 81t-56 63.5t-74 47t-91 46t-86 45.5 q-51 -66 -49 -113z" />
<glyph unicode="&#xa8;" horiz-adv-x="737" d="M20 1167v199h250v-199h-250zM463 1167v199h252v-199h-252z" />
<glyph unicode="&#xa9;" horiz-adv-x="1052" d="M119 911q0 168 119.5 289t287.5 121v-2q168 0 289 -120t121 -288t-120 -288.5t-290 -122.5q-170 0 -289.5 120.5t-117.5 290.5zM197 905q0 -137 97 -234.5t236.5 -97.5t235.5 97.5t96 236.5q0 137 -97 234.5t-237 97.5v-2q-139 0 -236 -97.5t-95 -234.5zM305 911 q0 117 62.5 183.5t171.5 66.5q33 0 67.5 -5t52.5 -9l17 -6l-35 -76q-37 20 -92 20q-123 0 -123 -176q0 -84 40 -131t99 -47q33 0 59.5 11.5t34.5 21.5l11 10v-88q-39 -31 -125 -31q-113 0 -175.5 69.5t-64.5 186.5z" />
<glyph unicode="&#xaa;" horiz-adv-x="1382" d="M20 768v186h115q0 272 236 346q74 23 137 21l96 -191q-8 2 -21.5 5.5t-47 0.5t-60 -17.5t-48 -56.5t-21.5 -108h446v-602q0 -94 15.5 -132t62.5 -38q63 0 98 41v731h270v-954h-102l-129 113q-10 -14 -29.5 -37t-80 -61t-119.5 -38q-145 0 -200.5 82t-55.5 269v440h-176 v-711q0 -156 -17.5 -216t-99.5 -169l-62 -80l-168 86q37 55 54.5 109.5t19.5 92.5t2 132v756h-115z" />
<glyph unicode="&#xab;" horiz-adv-x="849" d="M0 662l170 292h223l-112 -292l112 -291h-223zM453 662l143 292h225l-86 -292l86 -291h-227z" />
<glyph unicode="&#xad;" horiz-adv-x="817" d="M102 430v199h615v-199h-615z" />
<glyph unicode="&#xae;" horiz-adv-x="1054" d="M119 909q0 168 119.5 289t287.5 121l2 -2q168 0 289 -120t121 -288t-121 -288.5t-291 -122.5q-170 0 -289.5 120.5t-117.5 290.5zM197 907q0 -137 97 -234.5t236.5 -97.5t235.5 97.5t96 236.5q0 137 -97 234.5t-237 97.5v-2q-139 0 -236 -97.5t-95 -234.5zM375 672v475 h166q176 0 176 -123q0 -84 -94 -111q39 -16 65 -71l68 -133l-99 -43l-69 153q-27 61 -80 62h-27v-209h-106zM477 956l37 -2q90 0 90 68q0 35 -20.5 49t-69.5 14h-37v-129z" />
<glyph unicode="&#xb0;" horiz-adv-x="573" d="M0 991q0 168 77 259t206 91q131 0 209.5 -90t78.5 -260v-2q0 -170 -79.5 -261t-208.5 -89q-129 0 -206 91t-77 261zM135 989q0 -78 38 -122t108 -44q74 0 112.5 44t38.5 122h2q0 76 -39 120t-110 42q-72 0 -110 -43t-40 -119z" />
<glyph unicode="&#xb1;" horiz-adv-x="1179" d="M117 0v199h946v-199h-946zM123 516v201h371v239h198v-239h369v-201h-369v-246h-198v246h-371z" />
<glyph unicode="&#xb2;" d="M33 0q254 229 366.5 369.5t112.5 257.5q0 66 -45 111.5t-109 45.5q-49 0 -103 -11t-83 -23l-29 -13l-86 170q139 70 340 70q197 0 300.5 -89t105.5 -257q0 -72 -26.5 -139.5t-80 -132t-82 -94t-86.5 -81.5h320v-184h-815z" />
<glyph unicode="&#xb3;" d="M70 915q147 61 342 62q176 0 273 -79t97 -222q0 -86 -48 -165t-132 -118q94 -16 159.5 -97t65.5 -214h-2q0 -152 -104.5 -266.5t-269 -170t-359.5 -55.5l-2 189q201 0 324 80t123 217q0 106 -69 147t-218 41v191q246 0 242 184q-2 160 -162 160q-47 0 -92 -10.5 t-66 -20.5l-20 -10z" />
<glyph unicode="&#xb4;" horiz-adv-x="507" d="M8 1413l494 143v-192l-457 -64z" />
<glyph unicode="&#xb5;" horiz-adv-x="1206" d="M51 471q0 227 132 355t335 128h281v183l272 69v-252h135v-186h-135v-408q0 -92 2 -129.5t19.5 -92t54.5 -109.5l-170 -86l-59 82q-82 109 -100.5 170t-18.5 217v356h-234h2q-225 0 -225 -299q0 -145 62.5 -220t152.5 -77q68 0 129 35v-201q-86 -29 -178 -29 q-217 0 -337 131.5t-120 362.5z" />
<glyph unicode="&#xb6;" horiz-adv-x="1132" d="M61 903q0 193 119 293t312 100h530v-1640h-225v1456h-121v-1102q0 -88 -2 -119.5t-24.5 -86t-74.5 -101.5l-135 -125l-100 119l45 55q41 47 53.5 102.5t12.5 153.5v514h-2q-154 0 -271 111.5t-117 269.5z" />
<glyph unicode="&#xb7;" horiz-adv-x="473" d="M102 360v238h271v-238h-271z" />
<glyph unicode="&#xb8;" horiz-adv-x="0" d="M123 -311q55 84 65.5 147.5t10.5 239.5l266 2q4 -147 -14.5 -217t-98.5 -176l-59 -80z" />
<glyph unicode="&#xb9;" d="M92 852l580 176v-844h225v-184h-799v184h301v570l-198 -107z" />
<glyph unicode="&#xba;" horiz-adv-x="573" d="M0 991q0 168 77 259t206 91q131 0 209.5 -90t78.5 -260v-2q0 -170 -79.5 -261t-208.5 -89q-129 0 -206 91t-77 261zM135 989q0 -78 38 -122t108 -44q74 0 112.5 44t38.5 122h2q0 76 -39 120t-110 42q-72 0 -110 -43t-40 -119z" />
<glyph unicode="&#xbb;" horiz-adv-x="849" d="M29 371l86 291l-86 292h225l143 -292l-141 -291h-227zM457 371l112 291l-112 292h223l170 -292l-170 -291h-223z" />
<glyph unicode="&#xbc;" horiz-adv-x="2183" d="M1316 0v193l273 477q70 121 70 221v88h210v-113q0 -86 -2 -118.5t-18 -94t-51 -123.5l-199 -344h236v164l270 146v-902h-270v406h-519zM516 0l867 1384h284l-866 -1384h-285zM92 852l580 176v-844h225v-184h-799v184h301v570l-198 -107z" />
<glyph unicode="&#xbd;" horiz-adv-x="2183" d="M1286 0q254 229 366.5 369.5t112.5 257.5q0 66 -45 111.5t-109 45.5q-49 0 -103 -11t-83 -23l-29 -13l-86 170q139 70 340 70q197 0 300.5 -89t105.5 -257q0 -72 -26.5 -139.5t-80 -132t-82 -94t-86.5 -81.5h320v-184h-815zM516 0l867 1384h284l-866 -1384h-285zM92 852 l580 176v-844h225v-184h-799v184h301v570l-198 -107z" />
<glyph unicode="&#xbe;" horiz-adv-x="2183" d="M1316 0v193l273 477q70 121 70 221v88h210v-113q0 -86 -2 -118.5t-18 -94t-51 -123.5l-199 -344h236v164l270 146v-902h-270v406h-519zM516 0l867 1384h284l-866 -1384h-285zM70 915q147 61 342 62q176 0 273 -79t97 -222q0 -86 -48 -165t-132 -118q94 -16 159.5 -97 t65.5 -214h-2q0 -152 -104.5 -266.5t-269 -170t-359.5 -55.5l-2 189q201 0 324 80t123 217q0 106 -69 147t-218 41v191q246 0 242 184q-2 160 -162 160q-47 0 -92 -10.5t-66 -20.5l-20 -10z" />
<glyph unicode="&#xbf;" horiz-adv-x="811" d="M92 6q0 166 82 263.5t207 129.5l25 209h272l-33 -319q-106 -2 -181 -64.5t-75 -181.5q0 -100 49 -151.5t133 -53.5l97 19l84 -172q-92 -49 -258 -50q-182 0 -291 109.5t-111 261.5zM422 743l24 211h275l-25 -211h-274z" />
<glyph unicode="&#xc0;" horiz-adv-x="1067" d="M14 0l387 1161h277l375 -1161h-301l-76 279h-324l-76 -279h-262zM266 1364v192l492 -143l-37 -113zM399 479h232l-115 404z" />
<glyph unicode="&#xc1;" horiz-adv-x="1067" d="M14 0l387 1161h277l375 -1161h-301l-76 279h-324l-76 -279h-262zM344 1413l494 143v-192l-457 -64zM399 479h232l-115 404z" />
<glyph unicode="&#xc2;" horiz-adv-x="1067" d="M14 0l387 1161h277l375 -1161h-301l-76 279h-324l-76 -279h-262zM211 1411l334 135l336 -135l-39 -115l-297 74l-295 -74zM399 479h232l-115 404z" />
<glyph unicode="&#xc3;" horiz-adv-x="1067" d="M14 0l387 1161h277l375 -1161h-301l-76 279h-324l-76 -279h-262zM295 1335v138q74 61 154 73q61 8 125.5 -17.5t93.5 -25.5q41 0 79.5 7.5t55.5 15.5l18 8v-137q-74 -63 -153 -72q-61 -8 -127 16.5t-92 24.5q-41 0 -80 -7t-58 -16zM399 479h232l-115 404z" />
<glyph unicode="&#xc4;" horiz-adv-x="1067" d="M14 0l387 1161h277l375 -1161h-301l-76 279h-324l-76 -279h-262zM201 1296v199h252v-199h-252zM399 479h232l-115 404zM643 1296v199h252v-199h-252z" />
<glyph unicode="&#xc5;" horiz-adv-x="1067" d="M14 0l387 1161h277l375 -1161h-301l-76 279h-324l-76 -279h-262zM369 1419q0 72 45 118t129 46h-2q84 0 131 -46t49 -118q0 -72 -46 -114.5t-132 -40.5q-84 0 -129 42.5t-45 112.5zM399 479h232l-115 404zM479 1419q0 -31 15.5 -53.5t44.5 -22.5q59 0 63 76 q0 80 -61.5 80t-61.5 -80z" />
<glyph unicode="&#xc6;" horiz-adv-x="1390" d="M-10 768v186h112v183l273 69v-252h485v-602q0 -94 15.5 -132t62.5 -38q63 0 98 41v731h271v-954h-103l-129 113q-10 -14 -29.5 -37t-80 -61t-119.5 -38q-145 0 -200.5 82t-55.5 269v440h-215v-408q0 -92 2 -129.5t19.5 -92t54.5 -109.5l-170 -86l-60 82 q-82 109 -100.5 170t-18.5 217v356h-112zM770 1204l494 144v-193l-457 -63z" />
<glyph unicode="&#xc7;" horiz-adv-x="931" d="M63 631q0 322 147.5 495.5t426.5 176.5q82 0 157.5 -14.5t110.5 -26.5l35 -15l-109 -200q-66 55 -163 55q-147 0 -220 -128t-73 -325q0 -240 80 -366.5t204 -126.5q172 4 254 82v-228q-51 -35 -165 -47q-4 -70 -29 -125t-84 -135l-60 -80l-169 86q45 68 59 121t16 145 q-207 49 -313.5 220.5t-104.5 435.5z" />
<glyph unicode="&#xc8;" horiz-adv-x="815" d="M111 0v1161h684v-198h-394v-256h359v-201h-359v-307h394v-199h-684zM174 1372v195l494 -146l-37 -110z" />
<glyph unicode="&#xc9;" horiz-adv-x="815" d="M111 0v1161h684v-198h-394v-256h359v-201h-359v-307h394v-199h-684zM231 1413l494 146v-193l-457 -63z" />
<glyph unicode="&#xca;" horiz-adv-x="815" d="M111 0v1161h684v-198h-394v-256h359v-201h-359v-307h394v-199h-684zM115 1411l334 135l335 -135l-36 -115l-299 74l-295 -74z" />
<glyph unicode="&#xcb;" horiz-adv-x="815" d="M102 1296v199h250v-199h-250zM109 0v1161h684v-198h-394v-256h359v-201h-359v-307h394v-199h-684zM545 1296v199h252v-199h-252z" />
<glyph unicode="&#xcc;" horiz-adv-x="520" d="M-33 1364v192l494 -143l-37 -113zM115 0v1161h291v-1161h-291z" />
<glyph unicode="&#xcd;" horiz-adv-x="520" d="M45 1413l494 143v-192l-457 -64zM115 0v1161h291v-1161h-291z" />
<glyph unicode="&#xce;" horiz-adv-x="520" d="M-68 1411l334 135l334 -135l-37 -115l-297 74l-295 -74zM115 0v1161h291v-1161h-291z" />
<glyph unicode="&#xcf;" horiz-adv-x="520" d="M-88 1296v199h252v-199h-252zM115 0v1161h291v-1161h-291zM354 1296v199h252v-199h-252z" />
<glyph unicode="&#xd1;" horiz-adv-x="1124" d="M111 0v1161h297l370 -715v715h234v-1161h-273l-393 750v-750h-235zM285 1292v152q70 68 141 78q57 10 165.5 -18.5t131.5 -28.5q86 -2 143 34v-149q-70 -70 -141 -82q-59 -8 -166.5 20.5t-130.5 28.5q-88 2 -143 -35z" />
<glyph unicode="&#xd2;" horiz-adv-x="1120" d="M72 578q0 121 23.5 222t75.5 190t150.5 141.5t233.5 52.5q133 0 232.5 -51.5t154.5 -140.5t81 -191.5t26 -220.5v2q0 -256 -119 -430.5t-375 -176.5q-111 0 -197 34t-139 90.5t-88 136t-47 163t-12 179.5zM319 1364v192l494 -143l-37 -113zM373 584q0 -406 180 -408 q61 0 103 36t60.5 100.5t25 126t6.5 143.5v-2q0 80 -6.5 142t-25 126.5t-58.5 100.5t-101 36q-184 0 -184 -401z" />
<glyph unicode="&#xd3;" horiz-adv-x="1120" d="M72 578q0 121 23.5 222t75.5 190t150.5 141.5t233.5 52.5q133 0 232.5 -51.5t154.5 -140.5t81 -191.5t26 -220.5v2q0 -256 -119 -430.5t-375 -176.5q-111 0 -197 34t-139 90.5t-88 136t-47 163t-12 179.5zM336 1413l493 143v-192l-456 -64zM373 584q0 -406 180 -408 q61 0 103 36t60.5 100.5t25 126t6.5 143.5v-2q0 80 -6.5 142t-25 126.5t-58.5 100.5t-101 36q-184 0 -184 -401z" />
<glyph unicode="&#xd4;" horiz-adv-x="1120" d="M72 578q0 121 23.5 222t75.5 190t150.5 141.5t233.5 52.5q133 0 232.5 -51.5t154.5 -140.5t81 -191.5t26 -220.5v2q0 -256 -119 -430.5t-375 -176.5q-111 0 -197 34t-139 90.5t-88 136t-47 163t-12 179.5zM229 1411l334 135l336 -135l-37 -115l-299 74l-295 -74zM373 584 q0 -406 180 -408q61 0 103 36t60.5 100.5t25 126t6.5 143.5v-2q0 80 -6.5 142t-25 126.5t-58.5 100.5t-101 36q-184 0 -184 -401z" />
<glyph unicode="&#xd5;" horiz-adv-x="1120" d="M72 578q0 121 23.5 222t75.5 190t150.5 141.5t233.5 52.5q133 0 232.5 -51.5t154.5 -140.5t81 -191.5t26 -220.5v2q0 -256 -119 -430.5t-375 -176.5q-111 0 -197 34t-139 90.5t-88 136t-47 163t-12 179.5zM326 1413l493 143v-192l-457 -64zM373 584q0 -406 180 -408 q61 0 103 36t60.5 100.5t25 126t6.5 143.5v-2q0 80 -6.5 142t-25 126.5t-58.5 100.5t-101 36q-184 0 -184 -401z" />
<glyph unicode="&#xd6;" horiz-adv-x="1120" d="M72 578q0 121 23.5 222t75.5 190t150.5 141.5t233.5 52.5q133 0 232.5 -51.5t154.5 -140.5t81 -191.5t26 -220.5v2q0 -256 -119 -430.5t-375 -176.5q-111 0 -197 34t-139 90.5t-88 136t-47 163t-12 179.5zM213 1296v199h252v-199h-252zM373 584q0 -406 180 -408 q61 0 103 36t60.5 100.5t25 126t6.5 143.5v-2q0 80 -6.5 142t-25 126.5t-58.5 100.5t-101 36q-184 0 -184 -401zM655 1296v199h252v-199h-252z" />
<glyph unicode="&#xd8;" horiz-adv-x="1409" d="M20 768v186h115q0 272 236 346q74 23 137 21l96 -191q-8 2 -21.5 5.5t-47 0.5t-60 -17.5t-48 -56.5t-21.5 -108h446v-602q0 -94 15.5 -132t62.5 -38q63 0 98 41v731h270v-954h-102l-129 113q-10 -14 -29.5 -37t-80 -61t-119.5 -38q-145 0 -200.5 82t-55.5 269v440h-176 v-711q0 -156 -17.5 -216t-99.5 -169l-62 -80l-168 86q37 55 54.5 109.5t19.5 92.5t2 132v756h-115zM780 1204l494 144v-193l-457 -63z" />
<glyph unicode="&#xd9;" horiz-adv-x="1114" d="M102 461v696h291v-696q0 -63 2 -100t11.5 -78t26 -60.5t48 -33t76.5 -13.5q47 0 79 14.5t48 32t24.5 61.5t9.5 76.5t1 102.5v694h291v-696h2q0 -254 -109.5 -369t-355.5 -115q-233 0 -339 116t-106 368zM301 1364v192l494 -143l-37 -113z" />
<glyph unicode="&#xda;" horiz-adv-x="1114" d="M102 461v696h291v-696q0 -63 2 -100t11.5 -78t26 -60.5t48 -33t76.5 -13.5q47 0 79 14.5t48 32t24.5 61.5t9.5 76.5t1 102.5v694h291v-696h2q0 -254 -109.5 -369t-355.5 -115q-233 0 -339 116t-106 368zM352 1413l494 143v-192l-457 -64z" />
<glyph unicode="&#xdb;" horiz-adv-x="1114" d="M102 461v696h291v-696q0 -63 2 -100t11.5 -78t26 -60.5t48 -33t76.5 -13.5q47 0 79 14.5t48 32t24.5 61.5t9.5 76.5t1 102.5v694h291v-696h2q0 -254 -109.5 -369t-355.5 -115q-233 0 -339 116t-106 368zM248 1411l334 135l336 -135l-37 -115l-299 74l-295 -74z" />
<glyph unicode="&#xdc;" horiz-adv-x="1114" d="M102 461v696h291v-696q0 -63 2 -100t11.5 -78t26 -60.5t48 -33t76.5 -13.5q47 0 79 14.5t48 32t24.5 61.5t9.5 76.5t1 102.5v694h291v-696h2q0 -254 -109.5 -369t-355.5 -115q-233 0 -339 116t-106 368zM223 1296v199h250v-199h-250zM666 1296v199h252v-199h-252z" />
<glyph unicode="&#xdd;" horiz-adv-x="1007" d="M467 1558l494 143v-192l-457 -64zM14 1296h336l176 -442l191 442h278l-352 -639v-657h-291v657z" />
<glyph unicode="&#xe0;" horiz-adv-x="843" d="M33 242q0 131 69.5 207.5t225.5 125.5l180 58q0 90 -34 120.5t-128 30.5q-66 0 -128 -17t-91 -34l-29 -18v198q154 55 308 56q203 0 285.5 -72t82.5 -264v-289v-35v-45q0 -12 2 -44t8.5 -51t14.5 -46t23.5 -47.5t33.5 -38.5l-154 -70l-159 135q-10 -14 -28.5 -36.5 t-82 -59.5t-135.5 -37q-129 0 -196.5 75t-67.5 198zM193 1159v193l493 -144l-37 -112zM307 279q0 -61 38 -89t83 -15t66 56q4 8 6 16.5t4 15.5t3 18.5t2 20.5t1 29v35v47v58l-80 -22q-123 -39 -123 -170z" />
<glyph unicode="&#xe1;" horiz-adv-x="843" d="M33 242q0 131 69.5 207.5t225.5 125.5l180 58q0 90 -34 120.5t-128 30.5q-66 0 -128 -17t-91 -34l-29 -18v198q154 55 308 56q203 0 285.5 -72t82.5 -264v-289v-35v-45q0 -12 2 -44t8.5 -51t14.5 -46t23.5 -47.5t33.5 -38.5l-154 -70l-159 135q-10 -14 -28.5 -36.5 t-82 -59.5t-135.5 -37q-129 0 -196.5 75t-67.5 198zM238 1204l493 144v-193l-457 -63zM307 279q0 -61 38 -89t83 -15t66 56q4 8 6 16.5t4 15.5t3 18.5t2 20.5t1 29v35v47v58l-80 -22q-123 -39 -123 -170z" />
<glyph unicode="&#xe2;" horiz-adv-x="843" d="M33 242q0 131 69.5 207.5t225.5 125.5l180 58q0 90 -34 120.5t-128 30.5q-66 0 -128 -17t-91 -34l-29 -18v198q154 55 308 56q203 0 285.5 -72t82.5 -264v-289v-35v-45q0 -12 2 -44t8.5 -51t14.5 -46t23.5 -47.5t33.5 -38.5l-154 -70l-159 135q-10 -14 -28.5 -36.5 t-82 -59.5t-135.5 -37q-129 0 -196.5 75t-67.5 198zM102 1206l332 135l336 -135l-37 -114l-299 73l-293 -73zM307 279q0 -61 38 -89t83 -15t66 56q4 8 6 16.5t4 15.5t3 18.5t2 20.5t1 29v35v47v58l-80 -22q-123 -39 -123 -170z" />
<glyph unicode="&#xe3;" horiz-adv-x="843" d="M33 242q0 131 69.5 207.5t225.5 125.5l180 58q0 90 -34 120.5t-128 30.5q-66 0 -128 -17t-91 -34l-29 -18v198q154 55 308 56q203 0 285.5 -72t82.5 -264v-289v-35v-45q0 -12 2 -44t8.5 -51t14.5 -46t23.5 -47.5t33.5 -38.5l-154 -70l-159 135q-10 -14 -28.5 -36.5 t-82 -59.5t-135.5 -37q-129 0 -196.5 75t-67.5 198zM164 1083v136q74 61 153 73q61 8 126 -17.5t94 -25.5q41 0 79.5 7.5t55.5 15.5l18 8v-135q-74 -63 -153 -74q-63 -8 -129 17.5t-91 25.5q-41 0 -79.5 -7t-57.5 -15zM307 279q0 -61 38 -89t83 -15t66 56q4 8 6 16.5t4 15.5 t3 18.5t2 20.5t1 29v35v47v58l-80 -22q-123 -39 -123 -170z" />
<glyph unicode="&#xe4;" horiz-adv-x="843" d="M33 242q0 131 69.5 207.5t225.5 125.5l180 58q0 90 -34 120.5t-128 30.5q-66 0 -128 -17t-91 -34l-29 -18v198q154 55 308 56q203 0 285.5 -72t82.5 -264v-289v-35v-45q0 -12 2 -44t8.5 -51t14.5 -46t23.5 -47.5t33.5 -38.5l-154 -70l-159 135q-10 -14 -28.5 -36.5 t-82 -59.5t-135.5 -37q-129 0 -196.5 75t-67.5 198zM92 1090v198h252v-198h-252zM307 279q0 -61 38 -89t83 -15t66 56q4 8 6 16.5t4 15.5t3 18.5t2 20.5t1 29v35v47v58l-80 -22q-123 -39 -123 -170zM535 1090v198h251v-198h-251z" />
<glyph unicode="&#xe5;" horiz-adv-x="843" d="M33 242q0 131 69.5 207.5t225.5 125.5l180 58q0 90 -34 120.5t-128 30.5q-66 0 -128 -17t-91 -34l-29 -18v198q154 55 308 56q203 0 285.5 -72t82.5 -264v-289v-35v-45q0 -12 2 -44t8.5 -51t14.5 -46t23.5 -47.5t33.5 -38.5l-154 -70l-159 135q-10 -14 -28.5 -36.5 t-82 -59.5t-135.5 -37q-129 0 -196.5 75t-67.5 198zM266 1220.5q0 71.5 45 117.5t129 46t131 -46t47 -117.5t-46 -114.5t-132 -43q-84 0 -129 43t-45 114.5zM307 279q0 -61 38 -89t83 -15t66 56q4 8 6 16.5t4 15.5t3 18.5t2 20.5t1 29v35v47v58l-80 -22q-123 -39 -123 -170z M379 1221q0 -31 15.5 -53.5t46 -22.5t46 22.5t15.5 53.5q0 80 -62 79h2q-59 1 -63 -79z" />
<glyph unicode="&#xe6;" horiz-adv-x="1361" d="M33 252q0 131 69.5 208t225.5 126l180 57q0 90 -34 121t-128 29q-66 0 -128 -17.5t-91 -34.5l-29 -18v201q154 55 308 57q203 0 282 -70q94 68 238 68q231 0 317 -134t86 -423h-522q0 -248 207 -248q156 2 260 80v-203q-10 -8 -31.5 -20.5t-98.5 -31.5t-167 -19 q-291 0 -393 196v-2l-4 -6l-11 -15l-12 -19l-10 -15l-4 -6q-10 -14 -28.5 -37t-82 -59.5t-135.5 -36.5q-129 0 -196.5 73.5t-67.5 198.5zM307 287q0 -61 38 -89t83 -13.5t66 57.5q4 8 6 16t4 15.5t3 18.5t2 20.5t1 28.5v35v47v58l-80 -24q-123 -39 -123 -170zM803 580h241v2 q0 53 -2 80.5t-12 64.5t-36.5 53.5t-69.5 16.5q-121 0 -121 -217z" />
<glyph unicode="&#xe7;" horiz-adv-x="755" d="M51 483q0 229 121 362.5t336 133.5q164 0 258 -35l-96 -180q-35 31 -133 31q-195 0 -197 -312q0 -145 60.5 -226t148.5 -81q49 0 96 18.5t68 36.5l22 19v-221q-59 -29 -147 -43q0 -70 -16.5 -115t-65.5 -111l-45 -59l-127 63q35 55 45 97.5t10 126.5q-162 33 -250 163.5 t-88 331.5z" />
<glyph unicode="&#xe8;" horiz-adv-x="892" d="M51 479q0 246 105.5 372t300.5 126q231 0 317 -134t86 -423h-522q0 -248 207 -248q156 2 260 80l2 -203q-10 -8 -31.5 -20.5t-99.5 -33t-168 -20.5q-457 0 -457 504zM225 1161v193l492 -144l-37 -112zM336 580h239v2q0 53 -2 80.5t-12 64.5t-35.5 53.5t-68.5 16.5 q-121 0 -121 -217z" />
<glyph unicode="&#xe9;" horiz-adv-x="892" d="M51 479q0 246 105.5 372t300.5 126q231 0 317 -134t86 -423h-522q0 -248 207 -248q156 2 260 80l2 -203q-10 -8 -31.5 -20.5t-99.5 -33t-168 -20.5q-457 0 -457 504zM258 1204l494 144v-193l-457 -63zM336 580h239v2q0 53 -2 80.5t-12 64.5t-35.5 53.5t-68.5 16.5 q-121 0 -121 -217z" />
<glyph unicode="&#xea;" horiz-adv-x="892" d="M51 479q0 246 105.5 372t300.5 126q231 0 317 -134t86 -423h-522q0 -248 207 -248q156 2 260 80l2 -203q-10 -8 -31.5 -20.5t-99.5 -33t-168 -20.5q-457 0 -457 504zM139 1206l332 135l336 -135l-37 -114l-299 73l-293 -73zM336 580h239v2q0 53 -2 80.5t-12 64.5 t-35.5 53.5t-68.5 16.5q-121 0 -121 -217z" />
<glyph unicode="&#xeb;" horiz-adv-x="892" d="M51 479q0 246 105.5 372t300.5 126q231 0 317 -134t86 -423h-522q0 -248 207 -248q156 2 260 80l2 -203q-10 -8 -31.5 -20.5t-99.5 -33t-168 -20.5q-457 0 -457 504zM147 1092v198h252v-198h-252zM336 580h239v2q0 53 -2 80.5t-12 64.5t-35.5 53.5t-68.5 16.5 q-121 0 -121 -217zM592 1092v198h250v-198h-250z" />
<glyph unicode="&#xec;" horiz-adv-x="473" d="M-59 1159v193l493 -144l-37 -112zM102 0v954h271v-954h-271z" />
<glyph unicode="&#xed;" horiz-adv-x="473" d="M41 1204l494 144v-193l-457 -63zM102 0v954h271v-954h-271z" />
<glyph unicode="&#xee;" horiz-adv-x="473" d="M-82 1206l334 135l336 -135l-37 -114l-299 73l-295 -73zM102 0v954h271v-954h-271z" />
<glyph unicode="&#xef;" horiz-adv-x="473" d="M-109 1090v198h252v-198h-252zM102 0v954h271v-954h-271zM334 1090v198h252v-198h-252z" />
<glyph unicode="&#xf1;" horiz-adv-x="868" d="M4 901l152 74l135 -115q12 12 35.5 31.5t90 52.5t128.5 33q139 0 196.5 -79t57.5 -267v-631h-271v643q0 74 -15 101.5t-64 27.5q-23 0 -47.5 -10t-36.5 -21l-13 -10v-731h-270v598q0 160 -31 229q-18 43 -47 74zM190 1075v135l3 2q74 61 151 72q61 8 126 -17.5t93 -25.5 q41 0 79 7t56 16l19 8v-135q-74 -63 -152 -72q-61 -8 -127.5 16.5t-93.5 24.5q-41 0 -80 -7t-55 -16z" />
<glyph unicode="&#xf2;" horiz-adv-x="923" d="M49 477q0 240 94.5 370t321.5 130q219 0 314 -130t95 -370v2q0 -244 -94 -373t-317 -129q-225 0 -318.5 128t-95.5 372zM223 1163v193l494 -144l-39 -112zM342 479q0 -86 3 -133t14.5 -95t37 -67.5t66.5 -19.5q35 0 57.5 15.5t35.5 38t19.5 68.5t7.5 85t1 108v2 q0 72 -1 110t-7.5 84t-19.5 67.5t-35.5 37t-57.5 15.5q-78 0 -99.5 -72t-21.5 -244z" />
<glyph unicode="&#xf3;" horiz-adv-x="923" d="M49 477q0 240 94.5 370t321.5 130q219 0 314 -130t95 -370v2q0 -244 -94 -373t-317 -129q-225 0 -318.5 128t-95.5 372zM246 1206l493 144v-193l-456 -63zM342 479q0 -86 3 -133t14.5 -95t37 -67.5t66.5 -19.5q35 0 57.5 15.5t35.5 38t19.5 68.5t7.5 85t1 108v2 q0 72 -1 110t-7.5 84t-19.5 67.5t-35.5 37t-57.5 15.5q-78 0 -99.5 -72t-21.5 -244z" />
<glyph unicode="&#xf4;" horiz-adv-x="923" d="M49 477q0 240 94.5 370t321.5 130q219 0 314 -130t95 -370v2q0 -244 -94 -373t-317 -129q-225 0 -318.5 128t-95.5 372zM137 1208l334 135l334 -135l-37 -114l-297 73l-295 -73zM342 479q0 -86 3 -133t14.5 -95t37 -67.5t66.5 -19.5q35 0 57.5 15.5t35.5 38t19.5 68.5 t7.5 85t1 108v2q0 72 -1 110t-7.5 84t-19.5 67.5t-35.5 37t-57.5 15.5q-78 0 -99.5 -72t-21.5 -244z" />
<glyph unicode="&#xf5;" horiz-adv-x="935" d="M49 477q0 240 94.5 370t321.5 130q219 0 314 -130t95 -370v2q0 -244 -94 -373t-317 -129q-225 0 -318.5 128t-95.5 372zM215 1087v136q74 61 152 73q61 8 126.5 -17.5t94.5 -25.5q41 0 79 7.5t56 15.5l18 8v-135q-74 -63 -153 -74q-63 -8 -129 17.5t-90 25.5 q-41 0 -80 -7t-56 -15zM342 479q0 -86 3 -133t14.5 -95t37 -67.5t66.5 -19.5q35 0 57.5 15.5t35.5 38t19.5 68.5t7.5 85t1 108v2q0 72 -1 110t-7.5 84t-19.5 67.5t-35.5 37t-57.5 15.5q-78 0 -99.5 -72t-21.5 -244z" />
<glyph unicode="&#xf6;" horiz-adv-x="923" d="M49 477q0 240 94.5 370t321.5 130q219 0 314 -130t95 -370v2q0 -244 -94 -373t-317 -129q-225 0 -318.5 128t-95.5 372zM121 1094v198h252v-198h-252zM342 479q0 -86 3 -133t14.5 -95t37 -67.5t66.5 -19.5q35 0 57.5 15.5t35.5 38t19.5 68.5t7.5 85t1 108v2q0 72 -1 110 t-7.5 84t-19.5 67.5t-35.5 37t-57.5 15.5q-78 0 -99.5 -72t-21.5 -244zM563 1094v198h252v-198h-252z" />
<glyph unicode="&#xf7;" horiz-adv-x="1142" d="M137 381v199h864v-199h-864zM455 49v197h243v-197h-243zM455 711v196h243v-196h-243z" />
<glyph unicode="&#xf8;" horiz-adv-x="1564" d="M2 1346q100 43 236 43q119 0 185 -54.5t66 -150.5q0 -61 -32.5 -115.5t-89.5 -77.5q66 -14 110.5 -70.5t44.5 -146.5q0 -158 -148.5 -249t-355.5 -91l-2 129q139 0 223.5 55.5t84.5 151.5q0 72 -46.5 99.5t-150.5 27.5v131q168 0 164 127q-2 111 -109 111 q-33 0 -63.5 -7.5t-44.5 -13.5l-13 -8zM377 0l526 1366h254l-526 -1366h-254zM852 0v131l182 330q51 68 51 149v64h144v-78q0 -119 -21 -172q-10 -27 -28 -59l-136 -238h162v113l187 98v-619h-187v281h-354z" />
<glyph unicode="&#xf9;" horiz-adv-x="870" d="M68 328v626h272l-2 -602q0 -94 15.5 -132t62.5 -38q63 0 98 41v731h272v-954h-104l-127 113q-4 -6 -11 -15.5t-31 -32t-49.5 -41t-64.5 -33t-75 -14.5q-145 0 -200.5 82.5t-55.5 268.5zM180 1159v193l494 -144l-39 -112z" />
<glyph unicode="&#xfa;" horiz-adv-x="870" d="M68 328v626h272l-2 -602q0 -94 15.5 -132t62.5 -38q63 0 98 41v731h272v-954h-104l-127 113q-4 -6 -11 -15.5t-31 -32t-49.5 -41t-64.5 -33t-75 -14.5q-145 0 -200.5 82.5t-55.5 268.5zM172 1204l494 144v-193l-457 -63z" />
<glyph unicode="&#xfb;" horiz-adv-x="870" d="M68 328v626h272l-2 -602q0 -94 15.5 -132t62.5 -38q63 0 98 41v731h272v-954h-104l-127 113q-4 -6 -11 -15.5t-31 -32t-49.5 -41t-64.5 -33t-75 -14.5q-145 0 -200.5 82.5t-55.5 268.5zM80 1206l334 135l336 -135l-37 -114l-299 73l-295 -73z" />
<glyph unicode="&#xfc;" horiz-adv-x="874" d="M68 1090v198h251v-198h-251zM72 328v626h272l-2 -602q0 -94 15.5 -132t62.5 -38q63 0 98 41v731h273v-954h-105l-127 113q-4 -6 -11 -15.5t-30.5 -32t-49.5 -41t-64.5 -33t-75.5 -14.5q-145 0 -200.5 82.5t-55.5 268.5zM512 1090v198h250v-198h-250z" />
<glyph unicode="&#xfd;" horiz-adv-x="813" d="M368 1212l494 143v-192l-457 -64zM16 954h324l82 -495l110 495h265l-486 -1366l-229 84l205 494z" />
<glyph unicode="&#xff;" horiz-adv-x="813" d="M16 954h324l82 -495l110 495h265l-486 -1366l-229 84l205 494zM90 1090v198h252v-198h-252zM532 1090v198h252v-198h-252z" />
<glyph unicode="&#x152;" horiz-adv-x="1007" d="M-20 1161h333l158 -397l168 397h281l-330 -606v-555h-291v555zM225 1413l494 143v-192l-455 -64z" />
<glyph unicode="&#x153;" horiz-adv-x="813" d="M16 954h324l82 -495l110 495h265l-486 -1366l-229 84l205 494zM256 1204l494 144v-193l-457 -63z" />
<glyph unicode="&#x178;" horiz-adv-x="966" d="M14 1161h334l160 -397l168 397h278l-329 -606v-555h-291v555zM172 1296v199h252v-199h-252zM614 1296v199h252v-199h-252z" />
<glyph unicode="&#x2c6;" horiz-adv-x="602" d="M-35 1434l334 137l336 -137l-39 -113l-297 72l-295 -72z" />
<glyph unicode="&#x2dc;" horiz-adv-x="1181" d="M330 1243v135q74 61 153 74q61 8 126 -17.5t93 -25.5q41 0 79 7t57 16l18 8v-135q-74 -63 -154 -74q-63 -8 -128.5 17.5t-90.5 25.5q-41 0 -79.5 -7t-55.5 -16z" />
<glyph unicode="&#x2000;" horiz-adv-x="849" />
<glyph unicode="&#x2001;" horiz-adv-x="1701" />
<glyph unicode="&#x2002;" horiz-adv-x="849" />
<glyph unicode="&#x2003;" horiz-adv-x="1701" />
<glyph unicode="&#x2004;" horiz-adv-x="567" />
<glyph unicode="&#x2005;" horiz-adv-x="423" />
<glyph unicode="&#x2006;" horiz-adv-x="282" />
<glyph unicode="&#x2007;" horiz-adv-x="282" />
<glyph unicode="&#x2008;" horiz-adv-x="210" />
<glyph unicode="&#x2009;" horiz-adv-x="339" />
<glyph unicode="&#x200a;" horiz-adv-x="94" />
<glyph unicode="&#x2010;" horiz-adv-x="817" d="M102 430v199h615v-199h-615z" />
<glyph unicode="&#x2011;" horiz-adv-x="817" d="M102 430v199h615v-199h-615z" />
<glyph unicode="&#x2012;" horiz-adv-x="817" d="M102 430v199h615v-199h-615z" />
<glyph unicode="&#x2013;" horiz-adv-x="1062" d="M20 434v201h1024v-201h-1024z" />
<glyph unicode="&#x2014;" horiz-adv-x="1538" d="M20 434v201h1500v-201h-1500z" />
<glyph unicode="&#x2018;" horiz-adv-x="495" d="M115 823v152q0 129 19.5 191.5t94.5 158.5l60 74l155 -78q-53 -82 -64 -142.5t-11 -201.5v-154h-254z" />
<glyph unicode="&#x2019;" horiz-adv-x="495" d="M51 799q53 82 64.5 142t11.5 202v153h254v-151q0 -129 -19.5 -190.5t-95.5 -157.5l-59 -76z" />
<glyph unicode="&#x201c;" horiz-adv-x="944" d="M115 823v117q0 129 19.5 191.5t94.5 158.5l60 74l155 -78q-53 -82 -64 -142.5t-11 -201.5v-119h-254zM563 823v117q0 129 19.5 191.5t95.5 158.5l59 74l156 -78q-53 -82 -64.5 -142.5t-11.5 -201.5v-119h-254z" />
<glyph unicode="&#x201d;" horiz-adv-x="944" d="M51 836q53 82 64.5 142t11.5 202v118h254v-116v2q0 -129 -19.5 -191.5t-95.5 -158.5l-59 -74zM500 834q53 82 64 142t11 202v118h254v-116v2q0 -129 -19 -191.5t-95 -159.5l-60 -73z" />
<glyph unicode="&#x2022;" horiz-adv-x="800" d="M94 618q0 162 79 261.5t226 99.5q150 0 229 -99.5t79 -261.5h-2q0 -164 -79 -264t-225 -100q-147 0 -226 99t-81 265z" />
<glyph unicode="&#x2026;" horiz-adv-x="1394" d="M102 0v238h271v-238h-271zM561 0v238h273v-238h-273zM1022 0v238h270v-238h-270z" />
<glyph unicode="&#x202f;" horiz-adv-x="339" />
<glyph unicode="&#x2039;" horiz-adv-x="423" d="M0 662l170 292h223l-112 -292l112 -291h-223z" />
<glyph unicode="&#x203a;" horiz-adv-x="397" d="M29 371l86 291l-86 292h225l143 -292l-141 -291h-227z" />
<glyph unicode="&#x2044;" horiz-adv-x="323" d="M-414 0l867 1384h284l-866 -1384h-285z" />
<glyph unicode="&#x205f;" horiz-adv-x="423" />
<glyph unicode="&#x2122;" horiz-adv-x="667" d="M33 707q0 135 96 202.5t231 67.5q74 0 140.5 -11.5t95.5 -23.5l29 -12l-95 -174q-41 45 -124 47q-113 0 -113 -96q0 -37 34.5 -68t85 -59.5t101.5 -64.5t86 -99.5t35 -147.5v2q0 -133 -96.5 -213t-262.5 -80q-113 0 -241 43v203q92 -61 190 -61q147 0 148 106 q0 41 -25.5 71t-62.5 48.5t-82 45t-82 56t-62.5 86t-25.5 132.5zM47 1231l35 102l266 -65l268 65l33 -102l-301 -121z" />
<glyph unicode="&#xe000;" horiz-adv-x="955" d="M0 955h955v-955h-955v955z" />
<glyph unicode="&#xfb01;" horiz-adv-x="985" d="M20 768v186h115q0 461 711 342l37 -198h-283v51q-8 2 -21.5 5t-46 0t-58 -19.5t-47 -62.5t-21.5 -118h466v-954h-272v768h-194v-711q0 -156 -17.5 -216t-99.5 -169l-62 -80l-168 86q37 55 54.5 109.5t19.5 92.5t2 132v756h-115z" />
<glyph unicode="&#xfb02;" horiz-adv-x="1058" d="M20 768v186h115q0 111 41 189t105.5 113.5t143.5 54t158 14.5t143.5 -11t104.5 -18l41 -10v-926q0 -92 2.5 -128.5t19.5 -91t54 -111.5l-170 -86l-59 80q-80 104 -99.5 173.5t-19.5 215.5v725q-8 2 -21.5 5t-46 2t-58 -16.5t-47 -59.5t-21.5 -114h94v-186h-94v-711 q0 -156 -17.5 -216t-99.5 -169l-62 -80l-168 86q37 55 54.5 109.5t19.5 92.5t2 132v756h-115z" />
<glyph unicode="&#xfb03;" horiz-adv-x="1554" d="M1183 0v954h271v-954h-271zM1183 1102v196h271v-196h-271zM561 768v186h115q0 272 236 346q68 21 126 21h11l96 -191q-8 2 -21.5 5.5t-47 0.5t-60 -17.5t-48 -56.5t-21.5 -108h133v-186h-133v-711q0 -156 -17.5 -216t-99.5 -169l-62 -80l-168 86q37 55 54.5 109.5 t19.5 92.5t2 132v756h-115zM20 768v186h115q0 272 236 346q68 21 126 21h11l96 -191q-8 2 -21.5 5.5t-47 0.5t-60 -17.5t-48 -56.5t-21.5 -108h133v-186h-133v-711q0 -156 -17.5 -216t-99.5 -169l-62 -80l-168 86q37 55 54.5 109.5t19.5 92.5t2 132v756h-115z" />
<glyph unicode="&#xfb04;" horiz-adv-x="1556" d="M1183 412v884h271v-936q0 -92 2 -128.5t19.5 -91t54.5 -111.5l-170 -86l-58 80q-80 104 -99.5 174t-19.5 215zM561 768v186h115q0 272 236 346q68 21 126 21h11l96 -191q-8 2 -21.5 5.5t-47 0.5t-60 -17.5t-48 -56.5t-21.5 -108h133v-186h-133v-711q0 -156 -17.5 -216 t-99.5 -169l-62 -80l-168 86q37 55 54.5 109.5t19.5 92.5t2 132v756h-115zM20 768v186h115q0 272 236 346q68 21 126 21h11l96 -191q-8 2 -21.5 5.5t-47 0.5t-60 -17.5t-48 -56.5t-21.5 -108h133v-186h-133v-711q0 -156 -17.5 -216t-99.5 -169l-62 -80l-168 86 q37 55 54.5 109.5t19.5 92.5t2 132v756h-115z" />
</font>
</defs>
</svg>
