<?xml version="1.0" standalone="no"?>
<!DOCTYPE svg PUBLIC "-//W3C//DTD SVG 1.1//EN" "http://www.w3.org/Graphics/SVG/1.1/DTD/svg11.dtd" >
<svg xmlns="http://www.w3.org/2000/svg">
<metadata>
This is a custom SVG webfont generated by Font Squirrel.
Copyright   : Generated by Fontographer 35
</metadata>
<defs>
<font id="FontanaNegraRegular" horiz-adv-x="1052" >
<font-face units-per-em="2048" ascent="1638" descent="-410" />
<missing-glyph horiz-adv-x="331" />
<glyph unicode=" "  horiz-adv-x="331" />
<glyph unicode="&#x09;" horiz-adv-x="331" />
<glyph unicode="&#xa0;" horiz-adv-x="331" />
<glyph unicode="!" horiz-adv-x="716" d="M129 0l27 211h276l-29 -211h-274zM172 346l117 957h301l-166 -957h-252z" />
<glyph unicode="&#x22;" horiz-adv-x="921" d="M109 821v477h253v-477h-253zM557 821v477h254v-477h-254z" />
<glyph unicode="#" horiz-adv-x="1263" d="M49 334v184h223l31 250h-201v186h224l32 342h254l-53 -342h229l33 342h252l-51 -342h192v-186h-213l-32 -250h198v-184h-219l-33 -334h-253l53 334h-230l-32 -334h-254l53 334h-203zM508 518h227l31 250h-229z" />
<glyph unicode="$" horiz-adv-x="845" d="M63 700q0 119 74 179.5t201 89.5l45 321h260l-63 -321q127 -20 186 -43l-94 -176q-84 51 -193 51q-147 0 -147 -92q0 -43 46 -73t112.5 -53.5t133 -53t112.5 -91t46 -149.5v2q0 -117 -75.5 -201t-192.5 -100l-43 -332h-258l61 322q-117 10 -208 40l2 211q178 -70 303 -69 q53 0 97 19.5t42 66.5q0 53 -46 89t-111.5 59.5t-131 54t-112 93t-46.5 156.5z" />
<glyph unicode="%" horiz-adv-x="1800" d="M63 1040q0 158 84 253.5t240 95.5q158 0 244 -94.5t86 -254.5h2q0 -160 -86 -256t-246 -96q-158 0 -241 96t-83 256zM221 1040q0 -78 45 -122t123 -44q80 0 127 44.5t47 121.5q0 80 -46 122t-126 42q-78 0 -123 -43t-47 -121zM512 0l528 1366h252l-526 -1366h-254z M1083 328q0 158 84 253t242 95t244 -94.5t86 -253.5v2q0 -160 -86 -256.5t-244 -98.5q-158 0 -241 96.5t-85 256.5zM1239 332q0 -78 45 -122t123 -44q80 0 127 44t47 122h2q0 80 -47 122t-127 42q-78 0 -123 -43t-47 -121z" />
<glyph unicode="&#x26;" horiz-adv-x="1257" d="M78 367q0 125 71.5 211t196.5 122q-100 25 -153.5 93.5t-53.5 173.5q0 182 141.5 268t335.5 86q162 0 189 -21l2 -206q-49 33 -154 26q-84 0 -143 -38t-59 -115q0 -180 206 -181h138v152l290 74v-226h162v-198h-162v-611h-127l-75 99q-53 -49 -154.5 -74t-191.5 -25 q-197 0 -328 101t-131 289zM391 369q0 -90 59.5 -141.5t149.5 -51.5q102 0 195 39v373h-140q-121 0 -193.5 -53t-70.5 -166z" />
<glyph unicode="'" horiz-adv-x="473" d="M109 821v477h253v-477h-253z" />
<glyph unicode="(" horiz-adv-x="497" d="M127 1098q0 86 5 135t37 109.5t47 82t91 117.5l168 -86q-47 -76 -61.5 -134t-14.5 -157v-1226q0 -98 14.5 -156.5t61.5 -130.5l-170 -86q-115 154 -137 201q-39 84 -39 245z" />
<glyph unicode=")" horiz-adv-x="497" d="M20 1456l170 88q10 -12 27 -35q96 -125 124 -193.5t28 -217.5v-1086q0 -152 -29 -221.5t-123 -191.5q-18 -20 -27 -33l-167 86q47 74 61 132t14 157v1224q0 98 -14.5 156.5t-63.5 134.5z" />
<glyph unicode="*" horiz-adv-x="808" d="M63 1087l250 21l-186 162l182 143l99 -237l94 233l188 -139l-186 -162l241 -23l-73 -217l-203 129l49 -239h-229l57 243l-213 -133z" />
<glyph unicode="+" horiz-adv-x="1196" d="M129 379v199h371v376h198v-376h369v-199h-369v-383h-198v383h-371z" />
<glyph unicode="," horiz-adv-x="471" d="M33 -260q37 55 54 108.5t19.5 90t2.5 122.5v177h253v-152q0 -35 -2 -62.5t-2 -50t-8 -46t-9 -36t-14.5 -36t-16.5 -31.5t-23.5 -36t-26.5 -36t-33.5 -43t-38.5 -47z" />
<glyph unicode="-" horiz-adv-x="872" d="M129 430v199h614v-199h-614z" />
<glyph unicode="." horiz-adv-x="505" d="M117 0v238h272v-238h-272z" />
<glyph unicode="/" horiz-adv-x="612" d="M-94 -477l430 1773h262l-426 -1773h-266z" />
<glyph unicode="0" d="M45 477q0 221 129 360.5t348 139.5q217 0 350.5 -140.5t133.5 -359.5v2q0 -227 -128 -364.5t-354 -137.5q-221 0 -350 139.5t-129 360.5zM252 479q0 -119 74.5 -177t197.5 -58q121 0 197 58t76 177t-76 177.5t-199 58.5q-121 0 -194.5 -58.5t-75.5 -177.5z" />
<glyph unicode="1" d="M78 852l639 178v-846h313v-184h-950v184h364v572l-258 -107z" />
<glyph unicode="2" d="M20 0q143 115 213 174q90 76 146.5 128t124 149.5t67.5 175.5q0 68 -53 112.5t-123 42.5q-121 0 -256 -55l-92 180q160 70 393 70q176 0 299 -77t123 -241q0 -31 -5 -60.5t-19.5 -61t-24.5 -55t-35.5 -57.5t-38 -51.5t-45 -53t-42 -46t-46.5 -47.5t-41 -43h371v-184h-916 z" />
<glyph unicode="3" d="M84 915q147 61 379 62q102 0 195.5 -25.5t166 -97.5t72.5 -178q0 -190 -186 -279q123 -39 181 -113.5t58 -201.5v2q0 -102 -40 -183t-110.5 -133.5t-153.5 -88t-183.5 -55t-186.5 -27t-174 -7.5l-2 187q61 0 112.5 3t121 12t123 30.5t101.5 52.5t73.5 83t25.5 118 q0 102 -76.5 149t-185.5 47q-37 0 -102 -8l-2 191q74 0 137.5 11t120.5 54t57 117q0 164 -192 160q-131 0 -242 -49z" />
<glyph unicode="4" d="M88 0v193l299 477q57 92 70.5 142t13.5 167h201l-2 -115q0 -113 -16.5 -179.5t-69.5 -154.5l-215 -344h284v176l271 130v-895h-271v403h-565z" />
<glyph unicode="5" d="M119 324l114 630h377q80 0 176 52l82 -158q-31 -25 -56.5 -42.5t-42.5 -29.5t-43 -20t-38 -12.5t-45 -6.5t-45 -2h-59h-68l-37 -213q18 2 58 2q203 0 324.5 -98t121.5 -297l2 2q0 -100 -42 -185t-113.5 -144.5t-154.5 -101.5t-179 -67q-154 -39 -322 -39l-2 185 q82 0 164 16.5t164 50t133 100t51 156.5q0 88 -57.5 143.5t-130 74t-160.5 18.5q-72 0 -172 -14z" />
<glyph unicode="6" d="M68 530q0 350 215 570.5t563 220.5l98 -184q-225 0 -368.5 -80t-190.5 -279q80 25 184 25q182 0 302 -98.5t120 -276.5q0 -217 -116.5 -334t-331.5 -117q-240 0 -356.5 151.5t-118.5 401.5zM358 487q0 -53 7.5 -102t26 -103.5t58 -87t95.5 -32.5q166 0 166 246 q0 86 -48.5 148t-132.5 62q-106 0 -168 -30q-6 -56 -4 -101z" />
<glyph unicode="7" d="M55 465v489h951l-433 -964q-8 -20 -28.5 -64.5t-25.5 -56.5t-17.5 -45t-15.5 -49.5t-8 -47t-6 -62.5t-1 -73h-223v117q0 111 11 164t54 160l308 735h-306v-154z" />
<glyph unicode="8" d="M72 358q0 102 63.5 190.5t159.5 125.5q-176 104 -176 305q0 160 120.5 251t284.5 91q172 0 288 -84t118 -248q0 -158 -195 -282q248 -119 248 -353v2q0 -176 -139 -277.5t-324 -101.5q-197 0 -322.5 96.5t-125.5 284.5zM303 360q0 -92 50 -149t141 -55q90 0 149 51 t59 141q0 82 -60 132t-161 91q-72 -29 -125 -85t-53 -126zM377 997q0 -111 168 -190q66 23 120 77t54 117q0 68 -49 107t-119 39q-72 0 -123 -40t-51 -110z" />
<glyph unicode="9" d="M61 528q0 217 117 334t334 117q242 0 357.5 -152.5t115.5 -400.5q0 -348 -215 -569.5t-563 -221.5l-98 185q225 0 368.5 80t190.5 276q-80 -25 -185 -24q-182 0 -302 99t-120 277zM342 549q0 -86 48 -148.5t132 -64.5q106 0 168 31v2q6 49 6 100q0 53 -7 102.5 t-25.5 103.5t-58.5 86t-95 32q-164 0 -168 -244z" />
<glyph unicode=":" horiz-adv-x="528" d="M129 0v238h270v-238h-270zM129 717v237h270v-237h-270z" />
<glyph unicode=";" horiz-adv-x="528" d="M70 -260q37 55 54 108.5t19 90t2 122.5v177h254v-152q0 -35 -2 -62.5t-2 -50t-8 -46t-9 -36t-14.5 -36t-16.5 -31.5t-23.5 -36t-26.5 -36t-33.5 -43t-38.5 -47zM129 717v237h270v-237h-270z" />
<glyph unicode="&#x3c;" horiz-adv-x="1028" d="M86 393v168l856 377v-225l-555 -236l555 -235v-226z" />
<glyph unicode="=" horiz-adv-x="1140" d="M129 227v201h883v-201h-883zM129 545v198h883v-198h-883z" />
<glyph unicode="&#x3e;" horiz-adv-x="1028" d="M86 16v226l555 235l-555 236v225l856 -377v-168z" />
<glyph unicode="?" horiz-adv-x="913" d="M90 1270q131 49 287 49h31q92 -4 167 -29q109 -41 180.5 -134t71.5 -208q0 -166 -95 -267t-263 -136l-25 -199h-272l39 320q137 -2 231.5 57t94.5 188q0 84 -59.5 143.5t-141.5 57.5q-123 0 -152 -20zM129 0l27 211h276l-29 -211h-274z" />
<glyph unicode="A" horiz-adv-x="1230" d="M31 0l446 1296h273l450 -1296h-315l-97 319h-397l-96 -319h-264zM451 518h278l-135 457z" />
<glyph unicode="B" horiz-adv-x="1163" d="M139 0v1296h453q459 0 459 -315q0 -211 -197 -281q111 -27 171 -114.5t60 -204.5l-2 -2q0 -379 -573 -379h-371zM428 197h100q242 0 242 188q0 109 -62.5 145.5t-181.5 36.5h-98v-370zM428 766h98q211 0 211 168q0 162 -205 162h-104v-330z" />
<glyph unicode="C" horiz-adv-x="1062" d="M78 651q0 307 164 488.5t469 181.5q203 0 356 -59l-104 -193q-106 53 -232 53q-342 0 -342 -473q0 -190 95.5 -331.5t277.5 -143.5q78 0 160 28.5t122 84.5v-226q-53 -41 -147 -62.5t-180 -23.5q-309 0 -474 182.5t-165 493.5z" />
<glyph unicode="D" horiz-adv-x="1284" d="M139 0v1296h434q322 0 477.5 -151.5t155.5 -470.5v-2q0 -340 -163.5 -506t-501.5 -166h-402zM428 197l94 2q109 0 183.5 36.5t113.5 106.5t55.5 149.5t16.5 184.5h2q0 420 -344 420h-121v-899z" />
<glyph unicode="E" horiz-adv-x="954" d="M141 0v1296h766v-198h-477v-330h444v-199h-444v-370h477v-199h-766z" />
<glyph unicode="F" horiz-adv-x="911" d="M141 0v1296h746v-198h-457v-330h424v-199h-424v-569h-289z" />
<glyph unicode="G" horiz-adv-x="1284" d="M80 651q0 322 178 496t502 174q233 0 379 -72l-101 -186q-147 59 -280 59q-365 0 -365 -473q0 -475 320 -475q72 0 166 43v270h-279v199h565v-709h-123l-77 99q-135 -98 -301 -101q-283 0 -433.5 191.5t-150.5 484.5z" />
<glyph unicode="H" horiz-adv-x="1296" d="M139 0v1296h289v-528h442v528h287v-1296h-287v569h-442v-569h-289z" />
<glyph unicode="I" horiz-adv-x="569" d="M141 0v1296h289v-1296h-289z" />
<glyph unicode="J" horiz-adv-x="622" d="M-37 1098v198h518v-1271v2q0 -205 -141 -367l-154 -170l-200 107l125 170q80 106 79 256v1075h-227z" />
<glyph unicode="K" horiz-adv-x="1171" d="M141 0v1296h289v-452l451 487l219 -117l-387 -393l436 -821h-328l-305 627l-86 -84v-543h-289z" />
<glyph unicode="L" horiz-adv-x="864" d="M141 0v1296h289v-1097h410v-199h-699z" />
<glyph unicode="M" horiz-adv-x="1576" d="M141 0v1296h271l374 -591l373 591h277v-1296h-291v842l-330 -527h-110l-330 525v-840h-234z" />
<glyph unicode="N" horiz-adv-x="1296" d="M141 0v1296h277l504 -829v829h235v-1296h-254l-528 858v-858h-234z" />
<glyph unicode="O" horiz-adv-x="1343" d="M78 649q0 299 153.5 485.5t448.5 186.5q299 0 442.5 -183.5t143.5 -490.5v2q0 -305 -149.5 -488.5t-448.5 -185.5q-295 0 -442.5 185.5t-147.5 488.5zM391 649q0 -84 11.5 -155.5t39 -148.5t87 -122t147.5 -45q279 0 278 471h-2q0 475 -274 475q-287 0 -287 -462v-13z " />
<glyph unicode="P" horiz-adv-x="1087" d="M141 0v1296h391q510 0 510 -389h-2q0 -213 -145 -308t-373 -95h-92v-504h-289zM428 702h82q217 0 217 205q0 190 -219 191h-80v-396z" />
<glyph unicode="Q" horiz-adv-x="1265" d="M119 1036q70 145 207 215t309 70q256 0 404.5 -156.5t148.5 -414.5q0 -215 -134 -383t-343 -224q231 0 456 -69l-108 -213q-41 23 -115 47q-276 92 -670 92v219q276 0 442.5 132t168.5 401q0 150 -61.5 260t-198.5 110q-125 0 -194 -85t-69 -212q0 -125 66 -197.5 t190 -72.5l-86 -178q-217 2 -338 119q-120 115 -120 324q0 114 45 216z" />
<glyph unicode="R" horiz-adv-x="1140" d="M141 0v1296h449q473 0 473 -329q0 -113 -69.5 -191t-182.5 -117q106 -37 182 -190l183 -387l-258 -135l-201 469q-23 55 -48.5 87t-65.5 46t-71.5 16t-101.5 2v-567h-289zM430 762l102 2q225 0 226 172q0 96 -63.5 129t-172.5 33h-92v-336z" />
<glyph unicode="S" horiz-adv-x="976" d="M47 946q0 186 130 280.5t323 94.5q186 0 377 -55l-101 -195q-158 51 -258 51q-72 0 -116 -37.5t-44 -109.5q0 -61 58.5 -110.5t142.5 -87.5t169 -84t143.5 -125t58.5 -185h2q0 -205 -139.5 -305.5t-352.5 -100.5q-203 0 -385 64v233q219 -98 361 -100q203 0 202 166 q0 63 -58 113.5t-142 90.5t-169 86t-143.5 126.5t-58.5 189.5z" />
<glyph unicode="T" horiz-adv-x="974" d="M23 1098v198h929v-198h-325v-1098h-287v1098h-317z" />
<glyph unicode="U" horiz-adv-x="1257" d="M121 461v835h291v-835q0 -285 217 -287q125 0 171 77t46 212v833h291v-835q0 -481 -516 -486q-500 1 -500 486z" />
<glyph unicode="V" horiz-adv-x="1132" d="M23 1296h311l248 -972l262 972h266l-414 -1296h-270z" />
<glyph unicode="W" horiz-adv-x="1533" d="M31 1296h311l180 -878l168 536h205l174 -536l168 878h264l-340 -1296h-227l-158 526l-180 -526h-221z" />
<glyph unicode="X" horiz-adv-x="1200" d="M23 0l426 674l-388 622h338l215 -387l230 387h284l-372 -579l420 -717h-340l-256 465l-279 -465h-278z" />
<glyph unicode="Y" horiz-adv-x="1144" d="M23 1296h337l236 -442l246 442h280l-407 -639v-657h-291v657z" />
<glyph unicode="Z" horiz-adv-x="1044" d="M23 0v184l557 914h-494v198h938l-659 -1097h655v-199h-997z" />
<glyph unicode="[" horiz-adv-x="593" d="M129 -379v1856h444v-181h-174v-1495h174v-180h-444z" />
<glyph unicode="\" horiz-adv-x="679" d="M-59 1296h311l487 -1296h-311z" />
<glyph unicode="]" horiz-adv-x="593" d="M20 -199h175v1495h-175v181h447v-1856h-447v180z" />
<glyph unicode="_" horiz-adv-x="1220" d="M0 -98h1219v-195h-1219v195z" />
<glyph unicode="`" horiz-adv-x="507" d="M-18 1364v192l493 -143l-37 -113z" />
<glyph unicode="a" horiz-adv-x="1038" d="M63 270q0 111 83 191t223 110q188 45 288 70q0 86 -47 119t-137 33q-174 0 -315 -78l2 209q197 53 372 53q127 0 209 -26.5t122 -84t53.5 -122t13.5 -164.5l2 -273q0 -184 80 -260l-152 -74l-164 138q-123 -131 -307 -136q-147 0 -236.5 75t-89.5 220zM352 279 q0 -72 76 -97q30 -10 59 -10q43 0 82 23q66 31 78 80t12 202l-161 -39q-66 -16 -106 -58t-40 -101z" />
<glyph unicode="b" horiz-adv-x="1155" d="M129 0v1501h270v-577q100 53 219 53q211 0 331 -129t120 -344q0 -225 -106.5 -376t-323.5 -153q-82 0 -163 35t-116 99l-129 -109h-102zM399 385q0 -88 51.5 -155.5t137.5 -67.5q190 0 190 342q0 127 -54 208t-177 81q-80 0 -148 -25v-383z" />
<glyph unicode="c" horiz-adv-x="899" d="M86 483q0 227 139.5 360.5t366.5 133.5q96 0 155.5 -10.5t159.5 -42.5l-100 -185q-27 29 -83 41q-48 11 -90 11h-13q-125 0 -184.5 -89.5t-59.5 -220.5q0 -125 65.5 -216t186.5 -91q70 0 142.5 26.5t107.5 75.5l-2 -217q-102 -80 -297 -84q-223 0 -358.5 141.5 t-135.5 366.5z" />
<glyph unicode="d" horiz-adv-x="1157" d="M86 453q0 231 119 377.5t342 146.5q143 0 211 -51v573h268v-1182q0 -186 82 -270l-152 -74l-159 136q-45 -55 -121 -94.5t-146 -39.5q-215 0 -329.5 128.5t-114.5 349.5zM377 453q0 -111 49 -202t152 -91q180 0 180 268l-2 344q-35 20 -140 21q-131 0 -185 -97.5 t-54 -242.5z" />
<glyph unicode="e" horiz-adv-x="1103" d="M86 479q0 233 134 365.5t368 132.5q248 0 350 -147.5t102 -409.5h-665q0 -244 272 -248q86 0 181.5 28.5t156.5 80.5v-211q-150 -90 -356 -95q-248 0 -395.5 129t-147.5 375zM373 598h387l2 2q0 86 -49 142.5t-135 56.5q-80 0 -140.5 -59.5t-64.5 -141.5z" />
<glyph unicode="f" horiz-adv-x="614" d="M12 768v186h160v125q0 174 118 269q113 90 279 90h15h10l92 -187l2 2h-24q-98 0 -160 -49t-62 -145v-105h172v-186h-172v-809q0 -121 -13 -185.5t-33.5 -101.5t-96.5 -137q-20 -29 -33 -45l-170 86q49 74 62.5 133.5t13.5 159.5v899h-160z" />
<glyph unicode="g" horiz-adv-x="1032" d="M59 584q0 152 86 244t240 118q66 12 164 12q84 0 139 15.5t125 60.5l156 -84l-121 -129q119 -106 119 -258q0 -154 -115 -246t-270 -92l-37 -92q37 0 55 2q395 0 395 -282q0 -92 -48 -161t-128 -103.5t-162 -50t-168 -15.5q-221 0 -419 69l2 234q209 -106 399 -107 q49 0 79 2.5t75 12.5t68.5 37.5t23.5 70.5q0 29 -14.5 50.5t-43 34t-57.5 19.5t-69.5 9t-66.5 3t-63.5 0t-46.5 -1q-94 0 -94 74q0 43 94 207q-131 27 -213 119t-84 227zM328 575q0 -80 53 -129t135 -49q78 0 129 51.5t51 129.5v-3q0 88 -47 143.5t-133 55.5 q-88 0 -138 -54.5t-50 -144.5z" />
<glyph unicode="h" horiz-adv-x="1087" d="M129 0v1503h270l2 -600q100 74 246 74q164 0 249 -90t85 -256v-631h-270l-2 625q0 63 -31 110t-90 47q-117 0 -189 -53v-729h-270z" />
<glyph unicode="i" horiz-adv-x="571" d="M150 0v954h272v-954h-272zM150 1102v196h272v-196h-272z" />
<glyph unicode="j" horiz-adv-x="571" d="M74 -424q39 57 55 115.5t18.5 92.5t2.5 126v1044h272l-2 -1017q0 -41 -1 -71t-6 -60.5t-7.5 -48t-13.5 -44t-15 -37t-24.5 -40t-29 -40t-38 -50.5t-41.5 -56zM150 1100v196h272v-196h-272z" />
<glyph unicode="k" horiz-adv-x="1044" d="M129 0v1501h270v-819l367 344l211 -115l-299 -268l344 -643h-317l-230 461l-76 -68v-393h-270z" />
<glyph unicode="l" horiz-adv-x="571" d="M150 395v1106h272v-1134q0 -92 2 -127t18.5 -92.5t55.5 -114.5l-172 -84q-115 154 -138 201q-38 83 -38 245z" />
<glyph unicode="m" horiz-adv-x="1622" d="M49 905l152 74l139 -117q143 115 297 115q94 0 152.5 -22.5t113.5 -88.5q139 111 295 111q164 0 241 -82t77 -252v-643h-271v604q0 176 -125 176q-98 0 -162 -51v-729h-272v606q0 176 -123 176q-96 0 -164 -51v-731h-270v600q0 72 -3 112t-21.5 98t-55.5 95z" />
<glyph unicode="n" horiz-adv-x="1087" d="M51 901l152 74l137 -117q55 55 142 87t169 32q162 0 246 -91t84 -255v-631h-270l-2 616q0 70 -30 118t-95 48q-109 0 -185 -53v-729h-270v641q0 170 -78 260z" />
<glyph unicode="o" horiz-adv-x="1187" d="M94 477q0 229 137.5 364.5t368.5 137.5q233 0 363.5 -133t130.5 -369v2q0 -233 -137.5 -367.5t-371 -134.5t-362.5 133.5t-129 366.5zM383 479q0 -57 9 -108.5t30.5 -100.5t64.5 -77.5t105 -28.5q211 0 211 315l2 2q0 313 -211 314q-207 -1 -211 -316z" />
<glyph unicode="p" horiz-adv-x="1171" d="M47 901l150 74l90 -74q162 76 309 76q231 0 350 -128t119 -364v2q0 -215 -109.5 -362.5t-316.5 -147.5q-160 0 -244 84v-538h-270l-2 1110q0 180 -76 268zM395 377q0 -84 53.5 -148.5t135.5 -64.5q57 0 97 31.5t59.5 85t26.5 103.5t7 103l2 2q0 305 -239 306 q-78 0 -142 -25v-393z" />
<glyph unicode="q" horiz-adv-x="1150" d="M86 424q0 246 115.5 398.5t353.5 152.5q139 0 285 -66l80 66h102v-1454h-270l2 538q-37 -39 -108 -61.5t-134 -24.5q-193 0 -308.5 128t-117.5 323zM379 422q0 -102 45 -182t139 -80q82 0 135.5 63.5t53.5 147.5v397q-59 23 -146 23q-227 0 -227 -369z" />
<glyph unicode="r" horiz-adv-x="669" d="M49 901l154 74l155 -129q133 133 273 133q12 0 16 -2v-229l2 -3q-37 6 -74 7q-115 0 -176 -43v-709h-270l-2 598q0 74 -3 113t-20.5 94t-54.5 96z" />
<glyph unicode="s" horiz-adv-x="845" d="M63 696q0 137 118 209t263 72q158 0 322 -51l-94 -174q-78 49 -191 49q-147 0 -147 -99q0 -39 46 -64.5t111.5 -46t132 -49t112.5 -93t46 -160.5v2q0 -154 -118.5 -234t-280.5 -80q-168 0 -317 43v213q131 -72 309 -71q51 0 94 23.5t41 68.5q0 49 -46 81t-111.5 54.5 t-131 51t-112 93t-46.5 162.5z" />
<glyph unicode="t" horiz-adv-x="593" d="M0 768v186h150v174l272 82v-256h172v-186h-172v-446q0 -100 13.5 -160t62.5 -133l-172 -86q-119 158 -140 198q-37 90 -36 271v356h-150z" />
<glyph unicode="u" horiz-adv-x="1089" d="M106 328v626h273v-602q0 -178 123 -178q113 0 186 72v708h275v-954h-105l-129 109q-119 -129 -285 -134q-164 0 -251 93.5t-87 259.5z" />
<glyph unicode="v" horiz-adv-x="968" d="M20 954h308l170 -669l186 669h264l-354 -954h-236z" />
<glyph unicode="w" horiz-adv-x="1331" d="M20 954h306l102 -592l152 592h204l166 -592l92 592h269l-246 -954h-246l-157 506l-142 -506h-241z" />
<glyph unicode="x" horiz-adv-x="1060" d="M20 0l357 506l-305 448h323l140 -252l141 252h289l-289 -417l364 -537h-325l-201 342l-205 -342h-289z" />
<glyph unicode="y" horiz-adv-x="987" d="M20 954h324l168 -495l190 495h263l-648 -1468l-229 123l289 557z" />
<glyph unicode="z" horiz-adv-x="903" d="M20 0v152l420 616h-379v186h822l-535 -770h533v-184h-861z" />
<glyph unicode="{" horiz-adv-x="497" d="M10 575l74 74q45 47 45 156v270q0 141 18.5 211t96.5 172l63 82l168 -86q-51 -80 -63.5 -138.5t-12.5 -170.5v-287q0 -59 -2 -88t-16 -73t-43 -72l-47 -47l45 -46q31 -31 45 -71.5t16 -67t2 -86.5v-348q0 -113 12.5 -172t63.5 -137l-168 -86l-59 80q-80 104 -99.5 172.5 t-19.5 214.5v327q0 102 -45 148q-25 24 -74 69z" />
<glyph unicode="|" horiz-adv-x="512" d="M117 0v1366h276v-1366h-276z" />
<glyph unicode="}" horiz-adv-x="497" d="M20 1456l170 86l64 -82q78 -102 96.5 -170.5t18.5 -210.5v-270q0 -111 43 -158l73 -73l2 -3l-73 -67q-45 -45 -45 -150v-325q0 -145 -18.5 -214t-98.5 -173l-62 -80l-167 86q51 78 63 137t12 172v348q0 59 2 86t16.5 68t45.5 72l45 45l-47 47q-29 29 -43.5 72.5 t-16.5 72.5t-2 88l-2 285q0 113 -12.5 172t-63.5 139z" />
<glyph unicode="~" horiz-adv-x="798" d="M94 377v135q90 76 189 76q53 0 148 -23.5t138 -23.5q90 0 148 32l2 -135q-90 -76 -191 -76q-53 0 -149 24t-137 24q-91 0 -148 -33z" />
<glyph unicode="&#xa1;" horiz-adv-x="716" d="M129 -348l166 956h252l-117 -956h-301zM285 743l28 211h277l-29 -211h-276z" />
<glyph unicode="&#xa2;" horiz-adv-x="899" d="M86 481q0 193 103.5 324t289.5 164l45 321h262l-65 -319q63 -6 186 -47l-100 -185q-27 29 -83 41.5t-103 10.5q-125 0 -184.5 -89.5t-59.5 -220.5q0 -125 65.5 -216t184.5 -91q70 0 143.5 26.5t108.5 75.5v-219q-70 -59 -222 -77l-43 -322h-260l66 342q-162 47 -248 178 t-86 303z" />
<glyph unicode="&#xa3;" horiz-adv-x="860" d="M63 0v178q45 33 67 111t20 147l2 502q0 383 413 387q66 0 148 -10l53 -223q-68 23 -141 18q-186 0 -187 -164v-155h275v-201h-275q0 -16 2 -80t0 -89.5t-9 -72.5t-24.5 -82t-46.5 -67h453v-199h-750z" />
<glyph unicode="&#xa5;" horiz-adv-x="1140" d="M20 1296h338l236 -442l246 442h280l-364 -571h254v-199h-297v-116h297v-199h-297v-211h-291v211h-295v199h295v116h-295v199h252z" />
<glyph unicode="&#xa7;" horiz-adv-x="1058" d="M47 455q0 233 168 338h-2q-29 70 -25 155q0 186 121 279.5t312 93.5q172 0 284 -55l-94 -195q-57 51 -174 51q-61 0 -100 -41t-39 -102q0 -66 51 -117t122.5 -90t144.5 -85t123 -124t50 -182q0 -225 -168 -332q27 -59 31 -151q0 -186 -120 -280.5t-312 -96.5 q-168 0 -287 53l92 199q55 -53 168 -54q68 0 108 41t40 109q0 59 -51.5 108.5t-123 89t-144 86t-124 124.5t-51.5 178zM330 510q0 -45 21.5 -84t62.5 -67.5t77.5 -49t88 -45t75.5 -39.5q51 68 52 115q0 55 -38 103.5t-78 72t-114 59t-96 48.5q-51 -64 -51 -113z" />
<glyph unicode="&#xa8;" horiz-adv-x="796" d="M20 1167v199h271v-199h-271zM506 1167v199h270v-199h-270z" />
<glyph unicode="&#xa9;" horiz-adv-x="1038" d="M109 911q0 168 120.5 289t288.5 121t289 -121t121 -289q0 -170 -120 -289.5t-290 -119.5t-289.5 119.5t-119.5 289.5zM186 909q0 -139 98.5 -236.5t237.5 -97.5q137 0 234.5 97.5t99.5 236.5q0 137 -98.5 234.5t-237.5 97.5q-137 0 -235.5 -97.5t-98.5 -234.5zM299 911.5 q0 114.5 60.5 182t172.5 67.5q76 0 138 -20l-37 -74q-37 18 -90 18q-125 0 -125 -176q0 -72 34.5 -125t102.5 -53q76 0 107 43v-88q-39 -31 -125 -31q-115 0 -176.5 71t-61.5 185.5z" />
<glyph unicode="&#xaa;" horiz-adv-x="1708" d="M12 768v186h160v125q0 174 118 268.5t294 90.5h10l94 -185h-24q-98 0 -160 -49t-62 -145v-105h555v-602q0 -178 121 -178q111 0 189 72v708h272v-954h-102l-129 109q-119 -129 -285 -134q-164 0 -251 93.5t-87 259.5v440h-283v-811q0 -41 -1 -70.5t-1 -55.5t-7 -50.5 t-8 -38.5t-14.5 -39t-16.5 -34t-23.5 -37.5t-26.5 -38t-35.5 -48.5t-42.5 -55l-172 88q49 72 63.5 131.5t14.5 157.5v901h-160z" />
<glyph unicode="&#xab;" horiz-adv-x="935" d="M0 662l227 292h236l-172 -292l172 -291h-236zM463 662l203 292h223l-144 -292l144 -291h-225z" />
<glyph unicode="&#xad;" horiz-adv-x="872" d="M129 430v199h614v-199h-614z" />
<glyph unicode="&#xae;" horiz-adv-x="1040" d="M109 913q0 168 120.5 289t288.5 121q170 0 291 -121t123 -289q0 -170 -122 -289.5t-292 -119.5t-289.5 120.5t-119.5 288.5zM186 911q0 -139 98.5 -236t237.5 -97q137 0 234.5 97t99.5 236q0 137 -98.5 234.5t-237.5 97.5q-137 0 -235.5 -97.5t-98.5 -234.5zM367 672v475 h168q174 0 174 -121q0 -84 -95 -113q43 -16 66 -71l68 -133l-99 -43l-69 153q-18 41 -38 51.5t-69 10.5v-209h-106zM471 956l35 -2q90 0 90 68v2q0 61 -88 61h-37v-129z" />
<glyph unicode="&#xb0;" horiz-adv-x="782" d="M63 989q0 158 84 253t240 95q158 0 244 -94t86 -254h2q0 -160 -86 -256t-246 -96q-158 0 -241 96t-83 256zM221 989q0 -78 45 -122t123 -44q80 0 127 44t47 122q0 80 -46 122t-126 42q-78 0 -123 -43t-47 -121z" />
<glyph unicode="&#xb1;" horiz-adv-x="1179" d="M117 0v199h946v-199h-946zM123 516v201h371v239h198v-239h369v-201h-369v-246h-198v246h-371z" />
<glyph unicode="&#xb2;" d="M20 0q143 115 213 174q90 76 146.5 128t124 149.5t67.5 175.5q0 68 -53 112.5t-123 42.5q-121 0 -256 -55l-92 180q160 70 393 70q176 0 299 -77t123 -241q0 -31 -5 -60.5t-19.5 -61t-24.5 -55t-35.5 -57.5t-38 -51.5t-45 -53t-42 -46t-46.5 -47.5t-41 -43h371v-184h-916 z" />
<glyph unicode="&#xb3;" d="M84 915q147 61 379 62q102 0 195.5 -25.5t166 -97.5t72.5 -178q0 -190 -186 -279q123 -39 181 -113.5t58 -201.5v2q0 -102 -40 -183t-110.5 -133.5t-153.5 -88t-183.5 -55t-186.5 -27t-174 -7.5l-2 187q61 0 112.5 3t121 12t123 30.5t101.5 52.5t73.5 83t25.5 118 q0 102 -76.5 149t-185.5 47q-37 0 -102 -8l-2 191q74 0 137.5 11t120.5 54t57 117q0 164 -192 160q-131 0 -242 -49z" />
<glyph unicode="&#xb4;" horiz-adv-x="507" d="M57 1413l494 143v-192l-457 -64z" />
<glyph unicode="&#xb5;" horiz-adv-x="1411" d="M86 471q0 227 139.5 355t368.5 128h373v183l272 69v-252h180v-186h-180v-422q0 -113 12.5 -174t63.5 -139l-172 -84q-72 96 -92.5 123.5t-48 87t-31.5 111t-4 145.5v352h-260q-156 0 -234 -71.5t-78 -227.5q0 -125 65.5 -210t188.5 -85q133 0 182 49v-203 q-102 -43 -229 -43q-225 0 -370.5 135.5t-145.5 358.5z" />
<glyph unicode="&#xb6;" horiz-adv-x="1316" d="M78 903q0 190 117.5 291.5t312.5 101.5h668l-2 -1775h-269v1591h-172q0 -197 1 -590t1 -590q0 -90 -5 -141t-33.5 -109.5t-48 -85t-91.5 -120.5l-170 86q39 57 55.5 115.5t18.5 90t4 128.5v626q-156 0 -271.5 112.5t-115.5 268.5z" />
<glyph unicode="&#xb7;" horiz-adv-x="505" d="M117 360v238h272v-238h-272z" />
<glyph unicode="&#xb8;" horiz-adv-x="0" d="M143 -317q14 20 25.5 40.5t20 43t13.5 37t9 41t6 36.5t3 43t1 41v47v47l271 -2v-2q0 -162 -26 -228.5t-124 -193.5q-18 -25 -29 -36z" />
<glyph unicode="&#xb9;" d="M78 852l639 178v-846h313v-184h-950v184h364v572l-258 -107z" />
<glyph unicode="&#xba;" horiz-adv-x="782" d="M63 989q0 158 84 253t240 95q158 0 244 -94t86 -254h2q0 -160 -86 -256t-246 -96q-158 0 -241 96t-83 256zM221 989q0 -78 45 -122t123 -44q80 0 127 44t47 122q0 80 -46 122t-126 42q-78 0 -123 -43t-47 -121z" />
<glyph unicode="&#xbb;" horiz-adv-x="935" d="M47 371l143 291l-143 292h223l203 -292l-201 -291h-225zM473 371l172 291l-172 292h236l227 -292l-227 -291h-236z" />
<glyph unicode="&#xbc;" horiz-adv-x="2539" d="M1575 0v193l299 477q57 92 70.5 142t13.5 167h201l-2 -115q0 -113 -16.5 -179.5t-69.5 -154.5l-215 -344h284v176l271 130v-895h-271v403h-565zM721 -4l813 1302h285l-813 -1302h-285zM78 852l639 178v-846h313v-184h-950v184h364v572l-258 -107z" />
<glyph unicode="&#xbd;" horiz-adv-x="2539" d="M1507 0q143 115 213 174q90 76 146.5 128t124 149.5t67.5 175.5q0 68 -53 112.5t-123 42.5q-121 0 -256 -55l-92 180q160 70 393 70q176 0 299 -77t123 -241q0 -31 -5 -60.5t-19.5 -61t-24.5 -55t-35.5 -57.5t-38 -51.5t-45 -53t-42 -46t-46.5 -47.5t-41 -43h371v-184 h-916zM721 -4l813 1302h285l-813 -1302h-285zM78 852l639 178v-846h313v-184h-950v184h364v572l-258 -107z" />
<glyph unicode="&#xbe;" horiz-adv-x="2539" d="M1575 0v193l299 477q57 92 70.5 142t13.5 167h201l-2 -115q0 -113 -16.5 -179.5t-69.5 -154.5l-215 -344h284v176l271 130v-895h-271v403h-565zM721 -4l813 1302h285l-813 -1302h-285zM84 915q147 61 379 62q102 0 195.5 -25.5t166 -97.5t72.5 -178q0 -190 -186 -279 q123 -39 181 -113.5t58 -201.5v2q0 -102 -40 -183t-110.5 -133.5t-153.5 -88t-183.5 -55t-186.5 -27t-174 -7.5l-2 187q61 0 112.5 3t121 12t123 30.5t101.5 52.5t73.5 83t25.5 118q0 102 -76.5 149t-185.5 47q-37 0 -102 -8l-2 191q74 0 137.5 11t120.5 54t57 117 q0 164 -192 160q-131 0 -242 -49z" />
<glyph unicode="&#xbf;" horiz-adv-x="913" d="M86 6q0 166 95 267.5t263 136.5l25 198h272l-39 -321q-137 2 -231 -57.5t-94 -186.5q0 -84 59.5 -143.5t141.5 -59.5q123 0 151 21l94 -176q-131 -49 -286 -50h-31q-92 4 -168 29q-109 41 -180.5 134t-71.5 208zM479 743l31 211h274l-26 -211h-279z" />
<glyph unicode="&#xc0;" horiz-adv-x="1230" d="M31 0l446 1161h273l450 -1161h-315l-97 279h-395l-98 -279h-264zM319 1364v192l494 -143l-37 -113zM465 479h252l-123 385z" />
<glyph unicode="&#xc1;" horiz-adv-x="1230" d="M31 0l446 1161h273l450 -1161h-315l-97 279h-395l-98 -279h-264zM399 1413l494 143v-192l-457 -64zM465 479h252l-123 385z" />
<glyph unicode="&#xc2;" horiz-adv-x="1230" d="M31 0l446 1161h273l450 -1161h-315l-97 279h-395l-98 -279h-264zM289 1423l334 138l335 -138l-36 -112l-299 71l-295 -71zM465 479h252l-123 385z" />
<glyph unicode="&#xc3;" horiz-adv-x="1230" d="M31 0l446 1161h273l450 -1161h-315l-97 279h-395l-98 -279h-264zM328 1313v135q90 76 190 76q53 0 148.5 -23.5t136.5 -23.5q90 0 149 32l2 -135q-90 -76 -190 -76q-51 0 -147.5 22.5t-139.5 22.5q-88 1 -149 -30zM465 479h252l-123 385z" />
<glyph unicode="&#xc4;" horiz-adv-x="1230" d="M31 0l446 1161h273l450 -1161h-315l-97 279h-395l-98 -279h-264zM252 1298v197h270v-197h-270zM465 479h252l-123 385zM737 1298v197h273v-197h-273z" />
<glyph unicode="&#xc5;" horiz-adv-x="1230" d="M33 0l446 1161h273l450 -1161h-315l-96 279h-396l-98 -279h-264zM424 1456q0 82 54 123t138 41t140.5 -41t58.5 -123q0 -80 -56.5 -119t-142.5 -41q-84 0 -138 39t-54 121zM467 479h252l-123 385zM539 1456q0 -33 22.5 -54.5t55 -21.5t55 21.5t24.5 54.5q0 35 -22.5 57.5 t-57.5 22.5h2q-35 0 -57 -22.5t-22 -57.5z" />
<glyph unicode="&#xc6;" horiz-adv-x="1687" d="M0 768v186h150v174l272 82v-256h555v-604q0 -176 121 -176q111 0 188 72v708h273v-954h-105l-127 109q-119 -129 -285 -134q-164 0 -250.5 93.5t-89.5 257.5q0 147 5 442h-285v-449q0 -98 14.5 -158.5t61.5 -131.5l-170 -84q-12 16 -42 54t-36 48t-27.5 39t-24.5 38 t-16.5 33.5t-14.5 39t-7 39t-7 50t-2 55.5t-1 71v356h-150zM936 1200l494 146v-195l-457 -61z" />
<glyph unicode="&#xc7;" horiz-adv-x="1091" d="M78 633q0 307 164 488.5t469 181.5q203 0 356 -60l-102 -192q-106 53 -232 53q-340 0 -344 -473q0 -121 37 -225.5t125 -177t211 -72.5q78 0 160 28.5t125 83.5l2 -227q-74 -57 -224 -76q-10 -133 -147 -313q-16 -25 -27 -37l-170 86q76 115 76 268q-233 45 -356 220.5 t-123 443.5z" />
<glyph unicode="&#xc8;" horiz-adv-x="954" d="M141 0v1161h766v-198h-477v-256h444v-201h-444v-307h477v-199h-766zM250 1364v195l493 -146l-36 -110z" />
<glyph unicode="&#xc9;" horiz-adv-x="954" d="M141 0v1161h766v-198h-477v-256h444v-201h-444v-307h477v-199h-766zM301 1413l494 146v-193l-457 -63z" />
<glyph unicode="&#xca;" horiz-adv-x="954" d="M141 0v1161h766v-198h-477v-256h444v-201h-444v-307h477v-199h-766zM184 1423l334 138l336 -138l-37 -112l-299 71l-293 -71z" />
<glyph unicode="&#xcb;" horiz-adv-x="954" d="M141 0v1161h766v-198h-477v-256h444v-201h-444v-307h477v-199h-766zM147 1298v197h273v-197h-273zM635 1298v197h270v-197h-270z" />
<glyph unicode="&#xcc;" horiz-adv-x="573" d="M-2 1364v195l494 -146l-37 -110zM141 0v1161h291v-1161h-291z" />
<glyph unicode="&#xcd;" horiz-adv-x="571" d="M61 1413l494 143v-192l-455 -64zM141 0v1161h289v-1161h-289z" />
<glyph unicode="&#xce;" horiz-adv-x="573" d="M-51 1423l334 138l335 -138l-36 -112l-299 71l-295 -71zM141 0v1161h291v-1161h-291z" />
<glyph unicode="&#xcf;" horiz-adv-x="573" d="M-86 1298v197h270v-197h-270zM141 0v1161h291v-1161h-291zM399 1298v197h271v-197h-271z" />
<glyph unicode="&#xd1;" horiz-adv-x="1296" d="M141 0v1161h260l521 -723v723h235v-1161h-225l-557 748v-748h-234zM315 1292v152l2 -2q98 84 207 84q57 0 163 -25.5t153 -25.5q100 0 164 34l-3 -149q-96 -82 -206 -82q-57 0 -164 24.5t-152 24.5q-101 0 -164 -35z" />
<glyph unicode="&#xd2;" horiz-adv-x="1241" d="M78 587.5q0 278.5 135 441.5t410 163q276 0 408 -161t132 -441v-2q0 -281 -132 -441.5t-408 -160.5q-274 0 -409.5 161.5t-135.5 440zM352 1370v186l496 -139l-39 -108zM381 587.5q0 -407.5 240 -407.5q242 0 241 408q0 76 -7 135t-29.5 128t-74 106.5t-128.5 37.5 q-242 0 -242 -407.5z" />
<glyph unicode="&#xd3;" horiz-adv-x="1241" d="M78 580q0 279 135 441.5t410 162.5q276 0 408 -161t132 -441.5t-132 -441t-408 -160.5q-274 0 -409.5 162t-135.5 438zM350 1413l494 146v-193l-455 -63zM381 581.5q0 -407.5 240 -407.5q242 0 241 408q0 76 -7 135t-29.5 127.5t-74 106.5t-128.5 38q-242 0 -242 -407.5z " />
<glyph unicode="&#xd4;" horiz-adv-x="1241" d="M78 587.5q0 278.5 135 441.5t410 163q276 0 408 -161t132 -441v-2q0 -281 -132 -441.5t-408 -160.5q-274 0 -409.5 161.5t-135.5 440zM285 1436l333 135l336 -135l-36 -115l-300 74l-294 -74zM381 587.5q0 -407.5 240 -407.5q242 0 241 408q0 76 -7 135t-29.5 128 t-74 106.5t-128.5 37.5q-242 0 -242 -407.5z" />
<glyph unicode="&#xd5;" horiz-adv-x="1241" d="M78 587.5q0 278.5 135 441.5t410 163q276 0 408 -161t132 -441v-2q0 -281 -132 -441.5t-408 -160.5q-274 0 -409.5 161.5t-135.5 440zM328 1313v135q90 76 190 76q53 0 148.5 -23.5t136.5 -23.5q90 0 149 32l2 -135q-90 -76 -190 -76q-51 0 -147.5 22.5t-139.5 22.5 q-88 1 -149 -30zM381 587.5q0 -407.5 240 -407.5q242 0 241 408q0 76 -7 135t-29.5 128t-74 106.5t-128.5 37.5q-242 0 -242 -407.5z" />
<glyph unicode="&#xd6;" horiz-adv-x="1241" d="M78 587.5q0 278.5 135 441.5t410 163q276 0 408 -161t132 -441v-2q0 -281 -132 -441.5t-408 -160.5q-274 0 -409.5 161.5t-135.5 440zM250 1298v197h270v-197h-270zM381 587.5q0 -407.5 240 -407.5q242 0 241 408q0 76 -7 135t-29.5 128t-74 106.5t-128.5 37.5 q-242 0 -242 -407.5zM735 1298v197h273v-197h-273z" />
<glyph unicode="&#xd8;" horiz-adv-x="1708" d="M12 768v186h160v125q0 174 118 268.5t294 90.5h10l94 -185h-24q-98 0 -160 -49t-62 -145v-105h555v-602q0 -178 121 -178q111 0 189 72v708h272v-954h-102l-129 109q-119 -129 -285 -134q-164 0 -251 93.5t-87 259.5v440h-283v-811q0 -41 -1 -70.5t-1 -55.5t-7 -50.5 t-8 -38.5t-14.5 -39t-16.5 -34t-23.5 -37.5t-26.5 -38t-35.5 -48.5t-42.5 -55l-172 88q49 72 63.5 131.5t14.5 157.5v901h-160zM954 1200l494 146v-195l-457 -61z" />
<glyph unicode="&#xd9;" horiz-adv-x="1234" d="M109 461v700h290v-700q0 -135 46.5 -210t172.5 -75q129 0 173.5 74t44.5 213v698h290v-700h-2q0 -481 -508 -486q-240 0 -373.5 124t-133.5 362zM301 1364v195l494 -146l-37 -110z" />
<glyph unicode="&#xda;" horiz-adv-x="1234" d="M109 461v700h290v-700q0 -135 46.5 -210t172.5 -75q129 0 173.5 74t44.5 213v698h290v-700h-2q0 -481 -508 -486q-240 0 -373.5 124t-133.5 362zM360 1413l494 143v-192l-457 -64z" />
<glyph unicode="&#xdb;" horiz-adv-x="1234" d="M109 461v700h290v-700q0 -135 46.5 -210t172.5 -75q129 0 173.5 74t44.5 213v698h290v-700h-2q0 -481 -508 -486q-240 0 -373.5 124t-133.5 362zM276 1425l334 138l336 -138l-37 -112l-299 71l-295 -71z" />
<glyph unicode="&#xdc;" horiz-adv-x="1234" d="M109 461v700h290v-700q0 -135 46.5 -210t172.5 -75q129 0 173.5 74t44.5 213v698h290v-700h-2q0 -481 -508 -486q-240 0 -373.5 124t-133.5 362zM252 1298v197h270v-197h-270zM737 1298v197h273v-197h-273z" />
<glyph unicode="&#xdd;" horiz-adv-x="1144" d="M536 1556l494 143v-192l-457 -64zM23 1296h337l236 -442l246 442h280l-407 -639v-657h-291v657z" />
<glyph unicode="&#xe0;" horiz-adv-x="1038" d="M63 270q0 111 83 191t223 110q188 45 288 70q0 86 -47 119t-137 33q-174 0 -315 -78l2 209q197 53 372 53q127 0 209 -26.5t122 -84t53.5 -122t13.5 -164.5l2 -273q0 -184 80 -260l-152 -74l-164 138q-123 -131 -307 -136q-147 0 -236.5 75t-89.5 220zM264 1157v195 l496 -146l-37 -110zM352 279q0 -72 76 -96.5t141 12.5q66 31 78 80t12 202l-161 -39q-66 -16 -106 -58t-40 -101z" />
<glyph unicode="&#xe1;" horiz-adv-x="1038" d="M63 270q0 111 83 191t223 110q188 45 288 70q0 86 -47 119t-137 33q-174 0 -315 -78l2 209q197 53 372 53q127 0 209 -26.5t122 -84t53.5 -122t13.5 -164.5l2 -273q0 -184 80 -260l-152 -74l-164 138q-123 -131 -307 -136q-147 0 -236.5 75t-89.5 220zM297 1206l494 146 v-195l-457 -61zM352 279q0 -72 76 -96.5t141 12.5q66 31 78 80t12 202l-161 -39q-66 -16 -106 -58t-40 -101z" />
<glyph unicode="&#xe2;" horiz-adv-x="1038" d="M63 270q0 111 83 191t223 110q188 45 288 70q0 86 -47 119t-137 33q-174 0 -315 -78l2 209q197 53 372 53q127 0 209 -26.5t122 -84t53.5 -122t13.5 -164.5l2 -273q0 -184 80 -260l-152 -74l-164 138q-123 -131 -307 -136q-147 0 -236.5 75t-89.5 220zM182 1212l334 138 l336 -138l-37 -112l-299 71l-293 -71zM352 279q0 -72 76 -96.5t141 12.5q66 31 78 80t12 202l-161 -39q-66 -16 -106 -58t-40 -101z" />
<glyph unicode="&#xe3;" horiz-adv-x="1038" d="M63 270q0 111 83 191t223 110q188 45 288 70q0 86 -47 119t-137 33q-174 0 -315 -78l2 209q197 53 372 53q127 0 209 -26.5t122 -84t53.5 -122t13.5 -164.5l2 -273q0 -184 80 -260l-152 -74l-164 138q-123 -131 -307 -136q-147 0 -236.5 75t-89.5 220zM219 1139v135 q90 76 191 76q51 0 146 -22.5t138 -22.5q88 0 150 30v-135q-90 -76 -191 -76q-51 0 -147 22.5t-139 22.5q-89 1 -148 -30zM352 279q0 -72 76 -96.5t141 12.5q66 31 78 80t12 202l-161 -39q-66 -16 -106 -58t-40 -101z" />
<glyph unicode="&#xe4;" horiz-adv-x="1038" d="M63 270q0 111 83 191t223 110q188 45 288 70q0 86 -47 119t-137 33q-174 0 -315 -78l2 209q197 53 372 53q127 0 209 -26.5t122 -84t53.5 -122t13.5 -164.5l2 -273q0 -184 80 -260l-152 -74l-164 138q-123 -131 -307 -136q-147 0 -236.5 75t-89.5 220zM154 1094v196h272 v-196h-272zM352 279q0 -72 76 -96.5t141 12.5q66 31 78 80t12 202l-161 -39q-66 -16 -106 -58t-40 -101zM641 1094v196h270v-196h-270z" />
<glyph unicode="&#xe5;" horiz-adv-x="1038" d="M63 268q0 59 20.5 108.5t62.5 84.5t83 59.5t109 44t108.5 30.5t113.5 24.5t97 19.5q2 88 -46 121t-138 33q-174 0 -315 -78l2 211q197 53 372 53q88 0 155 -16.5t110 -38t71.5 -66.5t43 -81t20.5 -104.5t5 -110.5l-3 -126q-2 -84 -2 -129q0 -184 82 -260l-154 -74 l-162 138q-123 -131 -309 -136q-145 0 -235.5 75t-90.5 218zM336 1255.5q0 81.5 54 122.5t138 41t140.5 -41t58.5 -123q0 -80 -56.5 -118.5t-142.5 -40.5q-84 0 -138 39t-54 120.5zM354 281q0 -49 40 -79t89 -30q45 0 86 23q57 29 75 62.5t18 100.5l-3 121h3 q-14 -4 -60.5 -14t-71 -16.5t-63.5 -21.5t-59.5 -32.5t-37 -47t-16.5 -66.5zM451 1255q0 -33 22.5 -54t54.5 -23q33 0 55.5 21.5t24.5 55.5q0 35 -22.5 57.5t-57.5 22.5h2q-35 0 -57 -22.5t-22 -57.5z" />
<glyph unicode="&#xe6;" horiz-adv-x="1658" d="M66 270q0 225 315 303q184 45 274 68q2 88 -42 120t-138 32q-178 0 -317 -78l2 209q193 53 368 53q248 0 306 -119q66 119 325 119q434 0 434 -557h-649q0 -246 277 -246q84 0 174 27.5t143 79.5v-211q-170 -92 -336 -93q-295 0 -426 177q-55 -78 -168.5 -127.5 t-218.5 -49.5q-150 0 -237.5 74t-85.5 219zM354 279q0 -49 40 -79t89 -30q45 0 86 25q59 31 74.5 64.5t15.5 109.5v108l-147 -35q-160 -40 -158 -163zM946 598h387l2 2q0 86 -50 142.5t-136 54.5q-90 0 -146.5 -55.5t-56.5 -143.5z" />
<glyph unicode="&#xe7;" horiz-adv-x="899" d="M86 481q0 229 139.5 363.5t368.5 134.5q152 0 313 -53l-98 -187q-51 53 -186 54q-127 0 -186.5 -89.5t-59.5 -222.5q0 -125 65.5 -216t186.5 -91q70 0 142.5 26.5t107.5 75.5v-221q-70 -53 -205 -71q0 -20 -3 -38t-4 -32t-7.5 -29.5t-8.5 -26t-12 -26.5t-14 -23.5 t-18.5 -28t-20.5 -27.5t-25.5 -33.5t-28.5 -36.5l-137 69q39 57 50.5 109.5t13.5 130.5q-172 37 -272.5 169t-100.5 320z" />
<glyph unicode="&#xe8;" horiz-adv-x="1103" d="M86 481q0 233 134 365.5t368 130.5q248 0 350 -147.5t102 -409.5l-665 2q0 -246 272 -250q86 0 181.5 28.5t156.5 80.5l2 -211q-150 -90 -356 -95q-250 0 -397.5 130t-147.5 376zM322 1155v195l493 -146l-37 -110zM373 600h389q0 86 -49 142.5t-135 56.5 q-80 0 -140.5 -59.5t-64.5 -139.5z" />
<glyph unicode="&#xe9;" horiz-adv-x="1103" d="M86 481q0 233 134 365.5t368 130.5q248 0 350 -147.5t102 -409.5l-665 2q0 -246 272 -250q86 0 181.5 28.5t156.5 80.5l2 -211q-150 -90 -356 -95q-250 0 -397.5 130t-147.5 376zM373 600h389q0 86 -49 142.5t-135 56.5q-80 0 -140.5 -59.5t-64.5 -139.5zM381 1202 l493 146v-195l-456 -61z" />
<glyph unicode="&#xea;" horiz-adv-x="1103" d="M86 475q0 233 134 365.5t368 132.5q248 0 350 -148.5t102 -410.5l-665 2q0 -248 272 -248q86 0 181.5 28.5t156.5 77.5l2 -211q-150 -90 -356 -94q-250 0 -397.5 130t-147.5 376zM240 1212l333 138l336 -138l-37 -112l-299 71l-294 -71zM373 594h389q0 86 -49 142.5 t-135 56.5q-80 0 -140.5 -59.5t-64.5 -139.5z" />
<glyph unicode="&#xeb;" horiz-adv-x="1103" d="M86 481q0 233 134 365.5t368 130.5q248 0 350 -147.5t102 -409.5l-665 2q0 -246 272 -250q86 0 181.5 28.5t156.5 80.5l2 -211q-150 -90 -356 -95q-250 0 -397.5 130t-147.5 376zM207 1094v196h270v-196h-270zM373 600h389q0 86 -49 142.5t-135 56.5q-80 0 -140.5 -59.5 t-64.5 -139.5zM692 1094v196h273v-196h-273z" />
<glyph unicode="&#xec;" horiz-adv-x="573" d="M-35 1155v195l494 -146l-37 -110zM150 0v954h272v-954h-272z" />
<glyph unicode="&#xed;" horiz-adv-x="571" d="M100 1202l494 146v-195l-457 -61zM150 0v954h272v-954h-272z" />
<glyph unicode="&#xee;" horiz-adv-x="555" d="M-70 1208l334 138l336 -138l-37 -112l-299 71l-295 -71zM152 0v956h251v-956h-251z" />
<glyph unicode="&#xef;" horiz-adv-x="571" d="M-111 1094v196h271v-196h-271zM150 0v954h272v-954h-272zM375 1094v196h272v-196h-272z" />
<glyph unicode="&#xf1;" horiz-adv-x="1087" d="M49 899l152 76l137 -117q55 55 142 87t169 30q162 0 246 -91t84 -255v-631h-270v616q0 70 -31 118t-96 48q-106 0 -185 -51v-731h-270v641q0 170 -78 260zM227 1085v138v-2q90 76 189 75q51 0 147 -22.5t139 -22.5q88 0 150 31v-135q-90 -76 -190 -76q-53 0 -149.5 23.5 t-137.5 23.5q-91 0 -148 -33z" />
<glyph unicode="&#xf2;" horiz-adv-x="1173" d="M86 479q0 231 138 365.5t370 134.5q233 0 363 -133t130 -366.5t-137 -368t-370 -134.5q-236 0 -365 133t-129 369zM299 1153v195l494 -146l-37 -110zM377 479q0 -59 9 -109.5t30.5 -100.5t64.5 -78.5t105 -28.5q211 0 211 317q0 313 -211 314q-209 -1 -209 -314z" />
<glyph unicode="&#xf3;" horiz-adv-x="1173" d="M86 479q0 231 138 365.5t370 134.5q233 0 363 -133t130 -366.5t-137 -368t-370 -134.5q-236 0 -365 133t-129 369zM352 1202l496 146v-195l-459 -61zM377 479q0 -59 9 -109.5t30.5 -100.5t64.5 -78.5t105 -28.5q211 0 211 317q0 313 -211 314q-209 -1 -209 -314z" />
<glyph unicode="&#xf4;" horiz-adv-x="1173" d="M86 479q0 231 138 365.5t370 134.5q233 0 363 -133t130 -366.5t-137 -368t-370 -134.5q-236 0 -365 133t-129 369zM258 1204l334 137l336 -137l-39 -112l-297 71l-295 -71zM377 479q0 -59 9 -109.5t30.5 -100.5t64.5 -78.5t105 -28.5q211 0 211 317q0 313 -211 314 q-209 -1 -209 -314z" />
<glyph unicode="&#xf5;" horiz-adv-x="1173" d="M86 479q0 231 138 365.5t370 134.5q233 0 363 -133t130 -366.5t-137 -368t-370 -134.5q-236 0 -365 133t-129 369zM285 1085v138v-2q90 76 190 75q51 0 147.5 -22.5t139.5 -22.5q90 0 147 31l2 -135q-90 -76 -190 -76q-53 0 -149.5 23.5t-137.5 23.5q-90 0 -149 -33z M377 479q0 -59 9 -109.5t30.5 -100.5t64.5 -78.5t105 -28.5q211 0 211 317q0 313 -211 314q-209 -1 -209 -314z" />
<glyph unicode="&#xf6;" horiz-adv-x="1173" d="M86 479q0 231 138 365.5t370 134.5q233 0 363 -133t130 -366.5t-137 -368t-370 -134.5q-236 0 -365 133t-129 369zM209 1094v196h270v-196h-270zM377 479q0 -59 9 -109.5t30.5 -100.5t64.5 -78.5t105 -28.5q211 0 211 317q0 313 -211 314q-209 -1 -209 -314zM694 1094 v196h273v-196h-273z" />
<glyph unicode="&#xf7;" horiz-adv-x="1122" d="M129 379v199h864v-199h-864zM446 49v197h244v-197h-244zM446 711v196h244v-196h-244z" />
<glyph unicode="&#xf8;" horiz-adv-x="1748" d="M96 1348q96 41 258 41q115 0 206 -51.5t93 -155.5q0 -129 -131 -191q162 -51 162 -215q0 -82 -40 -145.5t-99.5 -99t-140 -57t-150.5 -29t-145 -7.5v129q381 0 380 203q0 70 -52 101.5t-128 31.5q-37 0 -73 -6v133q217 0 217 125q0 109 -134 113q-86 0 -165 -37zM565 0 l527 1366h254l-527 -1366h-254zM1057 -4v135l209 326q37 57 46 96t9 119h135l2 -80q0 -82 -10 -128t-49 -106l-150 -231h197v119l184 90v-615h-184v275h-389z" />
<glyph unicode="&#xf9;" horiz-adv-x="1091" d="M106 328v626h273v-602q0 -178 123 -178q113 0 186 72v708h275v-954h-105l-129 109q-119 -129 -285 -134q-164 0 -251 93.5t-87 259.5zM248 1153v195l493 -146l-36 -110z" />
<glyph unicode="&#xfa;" horiz-adv-x="1091" d="M106 328v626h273v-602q0 -178 123 -178q113 0 186 72v708h275v-954h-105l-129 109q-119 -129 -285 -134q-164 0 -251 93.5t-87 259.5zM377 1200l493 146v-195l-456 -61z" />
<glyph unicode="&#xfb;" horiz-adv-x="1091" d="M106 328v626h273v-602q0 -178 123 -178q113 0 186 72v708h275v-954h-105l-129 109q-119 -129 -285 -134q-164 0 -251 93.5t-87 259.5zM205 1206l334 137l335 -137l-36 -112l-299 71l-295 -71z" />
<glyph unicode="&#xfc;" horiz-adv-x="1091" d="M106 328v626h273v-602q0 -178 123 -178q113 0 186 72v708h275v-954h-105l-129 109q-119 -129 -285 -134q-164 0 -251 93.5t-87 259.5zM172 1094v196h270v-196h-270zM657 1094v196h273v-196h-273z" />
<glyph unicode="&#xfd;" horiz-adv-x="987" d="M454 1214l494 143v-192l-457 -64zM20 954h324l168 -495l190 495h263l-648 -1468l-229 123l289 557z" />
<glyph unicode="&#xff;" horiz-adv-x="987" d="M20 956h324l168 -495l190 495h263l-641 -1454l-244 92l297 574zM150 1092v196h272v-196h-272zM637 1092v196h270v-196h-270z" />
<glyph unicode="&#x152;" horiz-adv-x="1091" d="M23 1161h337l211 -395l220 395h278l-381 -598v-563h-291v561zM313 1413l494 143v-192l-457 -64z" />
<glyph unicode="&#x153;" horiz-adv-x="987" d="M20 956h324l168 -495l190 495h263l-641 -1454l-244 92l297 574zM266 1206l494 146v-195l-457 -61z" />
<glyph unicode="&#x178;" horiz-adv-x="1091" d="M23 1161h337l211 -395l220 395h278l-381 -598v-563h-291v561zM193 1298v197h272v-197h-272zM680 1298v197h270v-197h-270z" />
<glyph unicode="&#x2c6;" horiz-adv-x="602" d="M-35 1434l334 137l336 -137l-39 -113l-297 72l-295 -72z" />
<glyph unicode="&#x2dc;" horiz-adv-x="1181" d="M291 1243v135q90 76 190 76q53 0 148.5 -23.5t136.5 -23.5q90 0 149 33v-135q-90 -76 -190 -76q-51 0 -147.5 22.5t-139.5 22.5q-90 0 -147 -31z" />
<glyph unicode="&#x2000;" horiz-adv-x="849" />
<glyph unicode="&#x2001;" horiz-adv-x="1699" />
<glyph unicode="&#x2002;" horiz-adv-x="849" />
<glyph unicode="&#x2003;" horiz-adv-x="1699" />
<glyph unicode="&#x2004;" horiz-adv-x="565" />
<glyph unicode="&#x2005;" horiz-adv-x="423" />
<glyph unicode="&#x2006;" horiz-adv-x="282" />
<glyph unicode="&#x2007;" horiz-adv-x="282" />
<glyph unicode="&#x2008;" horiz-adv-x="210" />
<glyph unicode="&#x2009;" horiz-adv-x="339" />
<glyph unicode="&#x200a;" horiz-adv-x="94" />
<glyph unicode="&#x2010;" horiz-adv-x="872" d="M129 430v199h614v-199h-614z" />
<glyph unicode="&#x2011;" horiz-adv-x="872" d="M129 430v199h614v-199h-614z" />
<glyph unicode="&#x2012;" horiz-adv-x="872" d="M129 430v199h614v-199h-614z" />
<glyph unicode="&#x2013;" horiz-adv-x="1282" d="M129 434v201h1024v-201h-1024z" />
<glyph unicode="&#x2014;" horiz-adv-x="1757" d="M129 434v201h1499v-201h-1499z" />
<glyph unicode="&#x2018;" horiz-adv-x="495" d="M115 823v152q0 145 26.5 209.5t118.5 179.5q18 23 29 35l155 -78q-37 -55 -54 -108.5t-19 -90.5t-2 -123v-176h-254z" />
<glyph unicode="&#x2019;" horiz-adv-x="495" d="M51 801q37 55 54.5 108.5t19.5 89t2 121.5v176h254v-151q0 -35 -2 -62.5t-2 -50t-8.5 -46t-9.5 -36t-14 -36t-16 -32t-23.5 -36t-27 -35.5t-34 -43t-37.5 -47z" />
<glyph unicode="&#x201c;" horiz-adv-x="944" d="M115 823v115q0 145 25.5 207.5t119.5 181.5q18 25 29 37l155 -78q-37 -55 -54 -108.5t-19 -90t-2 -122.5v-142h-254zM563 823v117q0 35 2 62.5t2 50t8.5 46t9.5 36t14 36t16 31.5t23.5 36t27 36t34 43t37.5 47l156 -78q-37 -55 -54.5 -108.5t-19.5 -90t-2 -122.5v-142 h-254z" />
<glyph unicode="&#x201d;" horiz-adv-x="944" d="M51 838q37 55 54.5 108t19.5 89t2 122v141h254v-116q0 -35 -2 -62.5t-2 -49t-8.5 -46.5t-9.5 -37t-14 -35.5t-16 -32t-24.5 -36t-27 -34.5t-33.5 -43l-37 -46zM500 836q37 55 54 108t19 89t2 122v141h254v-116v2q0 -145 -26.5 -210t-118.5 -179q-18 -23 -29 -35z" />
<glyph unicode="&#x2022;" horiz-adv-x="1003" d="M129 621q0 170 100.5 265t272.5 95t273.5 -94t101.5 -266v2q0 -172 -101.5 -269.5t-273.5 -99.5q-172 0 -272.5 97.5t-100.5 269.5z" />
<glyph unicode="&#x2026;" horiz-adv-x="1558" d="M117 0v238h272v-238h-272zM643 0v238h272v-238h-272zM1169 0v238h273v-238h-273z" />
<glyph unicode="&#x202f;" horiz-adv-x="339" />
<glyph unicode="&#x2039;" horiz-adv-x="512" d="M4 662l227 292h236l-172 -292l172 -291h-236z" />
<glyph unicode="&#x203a;" horiz-adv-x="473" d="M47 371l143 291l-143 292h223l203 -292l-201 -291h-225z" />
<glyph unicode="&#x2044;" horiz-adv-x="434" d="M-332 -4l813 1302h285l-813 -1302h-285z" />
<glyph unicode="&#x205f;" horiz-adv-x="423" />
<glyph unicode="&#x2122;" horiz-adv-x="845" d="M63 696q0 137 118 209t263 72q152 0 316 -49l-82 -178q-84 51 -197 51q-147 0 -147 -99q0 -39 46 -64.5t111.5 -46t132 -49t112.5 -93t46 -160.5v2q0 -154 -118.5 -234t-280.5 -80q-168 0 -317 43v213q131 -72 309 -71q51 0 94 23.5t41 68.5q0 49 -46 81t-111.5 54.5 t-131 51t-112 93t-46.5 162.5zM104 1229l39 112l295 -71l299 71l37 -112l-336 -137z" />
<glyph unicode="&#xe000;" horiz-adv-x="955" d="M0 955h955v-955h-955v955z" />
<glyph unicode="&#xfb01;" horiz-adv-x="1167" d="M12 768v186h160v125q0 174 118 268.5t294 90.5h10l94 -185h-24q-98 0 -160 -49t-62 -145v-105h576v-954h-270v768h-306v-809q0 -121 -13 -185.5t-33.5 -101.5t-96.5 -137q-20 -29 -33 -45l-170 86q49 74 62.5 133.5t13.5 159.5v899h-160zM748 1102v196h270v-196h-270z " />
<glyph unicode="&#xfb02;" horiz-adv-x="1140" d="M12 768v186h160v140q0 344 412 344q186 0 407 -66v-1005q0 -92 2 -127t18.5 -92.5t55.5 -114.5l-170 -86q-121 160 -147.5 226.5t-26.5 242.5l-2 823q-43 12 -92 12q-186 0 -187 -176v-121h187v-186h-187l2 -809q0 -41 -1 -70.5t-2 -55.5t-7 -50.5t-7 -39.5t-14.5 -38.5 t-16.5 -34t-23.5 -38t-27.5 -38t-36.5 -49.5t-42.5 -55l-170 86q47 72 61.5 132.5t14.5 158.5v901h-160z" />
<glyph unicode="&#xfb03;" horiz-adv-x="1800" d="M1379 0v954h272v-954h-272zM1379 1102v196h272v-196h-272zM626 768v186h160v125q0 174 118 269q113 90 279 90h15h10l92 -187l2 2h-24q-98 0 -160 -49t-62 -145v-105h172v-186h-172v-809q0 -121 -13 -185.5t-33.5 -101.5t-96.5 -137q-20 -29 -33 -45l-170 86 q49 74 62.5 133.5t13.5 159.5v899h-160zM12 768v186h160v125q0 174 118 269q113 90 279 90h15h10l92 -187l2 2h-24q-98 0 -160 -49t-62 -145v-105h172v-186h-172v-809q0 -121 -13 -185.5t-33.5 -101.5t-96.5 -137q-20 -29 -33 -45l-170 86q49 74 62.5 133.5t13.5 159.5v899 h-160z" />
<glyph unicode="&#xfb04;" horiz-adv-x="1800" d="M1379 395v1106h272v-1134q0 -92 2 -127t18.5 -92.5t55.5 -114.5l-172 -84q-115 154 -138 201q-38 83 -38 245zM626 768v186h160v125q0 174 118 269q113 90 279 90h15h10l92 -187l2 2h-24q-98 0 -160 -49t-62 -145v-105h172v-186h-172v-809q0 -121 -13 -185.5 t-33.5 -101.5t-96.5 -137q-20 -29 -33 -45l-170 86q49 74 62.5 133.5t13.5 159.5v899h-160zM12 768v186h160v125q0 174 118 269q113 90 279 90h15h10l92 -187l2 2h-24q-98 0 -160 -49t-62 -145v-105h172v-186h-172v-809q0 -121 -13 -185.5t-33.5 -101.5t-96.5 -137 q-20 -29 -33 -45l-170 86q49 74 62.5 133.5t13.5 159.5v899h-160z" />
</font>
</defs>
</svg>
